<?xml version="1.0" encoding="utf-8" standalone="no"?>
<!DOCTYPE svg PUBLIC "-//W3C//DTD SVG 1.1//EN"
  "http://www.w3.org/Graphics/SVG/1.1/DTD/svg11.dtd">
<svg xmlns:xlink="http://www.w3.org/1999/xlink" width="1162.85pt" height="556.300877pt" viewBox="0 0 1162.85 556.300877" xmlns="http://www.w3.org/2000/svg" version="1.1">
 <metadata>
  <rdf:RDF xmlns:dc="http://purl.org/dc/elements/1.1/" xmlns:cc="http://creativecommons.org/ns#" xmlns:rdf="http://www.w3.org/1999/02/22-rdf-syntax-ns#">
   <cc:Work>
    <dc:type rdf:resource="http://purl.org/dc/dcmitype/StillImage"/>
    <dc:date>2025-01-01T18:25:47.825117</dc:date>
    <dc:format>image/svg+xml</dc:format>
    <dc:creator>
     <cc:Agent>
      <dc:title>Matplotlib v3.5.2, https://matplotlib.org/</dc:title>
     </cc:Agent>
    </dc:creator>
   </cc:Work>
  </rdf:RDF>
 </metadata>
 <defs>
  <style type="text/css">*{stroke-linejoin: round; stroke-linecap: butt}</style>
 </defs>
 <g id="figure_1">
  <g id="patch_1">
   <path d="M 0 556.300877 
L 1162.85 556.300877 
L 1162.85 0 
L 0 0 
z
" style="fill: #ffffff"/>
  </g>
  <g id="axes_1">
   <g id="patch_2">
    <path d="M 39.65 527.356875 
L 1155.65 527.356875 
L 1155.65 28.396875 
L 39.65 28.396875 
z
" style="fill: #ffffff"/>
   </g>
   <g id="patch_3">
    <path d="M -629.95 527.356875 
L -566.178571 527.356875 
L -566.178571 527.356875 
L -629.95 527.356875 
z
" clip-path="url(#pde3763b7eb)" style="fill: #0000ff"/>
   </g>
   <g id="patch_4">
    <path d="M -550.235714 527.356875 
L -486.464286 527.356875 
L -486.464286 527.356875 
L -550.235714 527.356875 
z
" clip-path="url(#pde3763b7eb)" style="fill: #0000ff"/>
   </g>
   <g id="patch_5">
    <path d="M -470.521429 527.356875 
L -406.75 527.356875 
L -406.75 527.356875 
L -470.521429 527.356875 
z
" clip-path="url(#pde3763b7eb)" style="fill: #0000ff"/>
   </g>
   <g id="patch_6">
    <path d="M -390.807143 527.356875 
L -327.035714 527.356875 
L -327.035714 527.356875 
L -390.807143 527.356875 
z
" clip-path="url(#pde3763b7eb)" style="fill: #0000ff"/>
   </g>
   <g id="patch_7">
    <path d="M -311.092857 527.356875 
L -247.321429 527.356875 
L -247.321429 527.356875 
L -311.092857 527.356875 
z
" clip-path="url(#pde3763b7eb)" style="fill: #0000ff"/>
   </g>
   <g id="patch_8">
    <path d="M -231.378571 527.356875 
L -167.607143 527.356875 
L -167.607143 527.356875 
L -231.378571 527.356875 
z
" clip-path="url(#pde3763b7eb)" style="fill: #0000ff"/>
   </g>
   <g id="patch_9">
    <path d="M -151.664286 527.356875 
L -87.892857 527.356875 
L -87.892857 527.356875 
L -151.664286 527.356875 
z
" clip-path="url(#pde3763b7eb)" style="fill: #0000ff"/>
   </g>
   <g id="patch_10">
    <path d="M -71.95 527.356875 
L -8.178571 527.356875 
L -8.178571 527.356875 
L -71.95 527.356875 
z
" clip-path="url(#pde3763b7eb)" style="fill: #0000ff"/>
   </g>
   <g id="patch_11">
    <path d="M 7.764286 527.356875 
L 71.535714 527.356875 
L 71.535714 527.356875 
L 7.764286 527.356875 
z
" clip-path="url(#pde3763b7eb)" style="fill: #0000ff"/>
   </g>
   <g id="patch_12">
    <path d="M 87.478571 527.356875 
L 151.25 527.356875 
L 151.25 527.356875 
L 87.478571 527.356875 
z
" clip-path="url(#pde3763b7eb)" style="fill: #0000ff"/>
   </g>
   <g id="patch_13">
    <path d="M 167.192857 527.356875 
L 230.964286 527.356875 
L 230.964286 467.481675 
L 167.192857 467.481675 
z
" clip-path="url(#pde3763b7eb)" style="fill: #0000ff"/>
   </g>
   <g id="patch_14">
    <path d="M 246.907143 527.356875 
L 310.678571 527.356875 
L 310.678571 524.612595 
L 246.907143 524.612595 
z
" clip-path="url(#pde3763b7eb)" style="fill: #0000ff"/>
   </g>
   <g id="patch_15">
    <path d="M 326.621429 527.356875 
L 390.392857 527.356875 
L 390.392857 516.130275 
L 326.621429 516.130275 
z
" clip-path="url(#pde3763b7eb)" style="fill: #0000ff"/>
   </g>
   <g id="patch_16">
    <path d="M 406.335714 527.356875 
L 470.107143 527.356875 
L 470.107143 507.398475 
L 406.335714 507.398475 
z
" clip-path="url(#pde3763b7eb)" style="fill: #0000ff"/>
   </g>
   <g id="patch_17">
    <path d="M 486.05 527.356875 
L 549.821429 527.356875 
L 549.821429 514.882875 
L 486.05 514.882875 
z
" clip-path="url(#pde3763b7eb)" style="fill: #0000ff"/>
   </g>
   <g id="patch_18">
    <path d="M 565.764286 527.356875 
L 629.535714 527.356875 
L 629.535714 506.650035 
L 565.764286 506.650035 
z
" clip-path="url(#pde3763b7eb)" style="fill: #0000ff"/>
   </g>
   <g id="patch_19">
    <path d="M 645.478571 527.356875 
L 709.25 527.356875 
L 709.25 504.155235 
L 645.478571 504.155235 
z
" clip-path="url(#pde3763b7eb)" style="fill: #0000ff"/>
   </g>
   <g id="patch_20">
    <path d="M 725.192857 527.356875 
L 788.964286 527.356875 
L 788.964286 520.371435 
L 725.192857 520.371435 
z
" clip-path="url(#pde3763b7eb)" style="fill: #0000ff"/>
   </g>
   <g id="patch_21">
    <path d="M 804.907143 527.356875 
L 868.678571 527.356875 
L 868.678571 509.394315 
L 804.907143 509.394315 
z
" clip-path="url(#pde3763b7eb)" style="fill: #0000ff"/>
   </g>
   <g id="patch_22">
    <path d="M 884.621429 527.356875 
L 948.392857 527.356875 
L 948.392857 527.356875 
L 884.621429 527.356875 
z
" clip-path="url(#pde3763b7eb)" style="fill: #0000ff"/>
   </g>
   <g id="patch_23">
    <path d="M 964.335714 527.356875 
L 1028.107143 527.356875 
L 1028.107143 267.648195 
L 964.335714 267.648195 
z
" clip-path="url(#pde3763b7eb)" style="fill: #0000ff"/>
   </g>
   <g id="patch_24">
    <path d="M 1044.05 527.356875 
L 1107.821429 527.356875 
L 1107.821429 527.356875 
L 1044.05 527.356875 
z
" clip-path="url(#pde3763b7eb)" style="fill: #0000ff"/>
   </g>
   <g id="patch_25">
    <path d="M 1123.764286 527.356875 
L 1187.535714 527.356875 
L 1187.535714 527.356875 
L 1123.764286 527.356875 
z
" clip-path="url(#pde3763b7eb)" style="fill: #0000ff"/>
   </g>
   <g id="patch_26">
    <path d="M 1203.478571 527.356875 
L 1267.25 527.356875 
L 1267.25 527.356875 
L 1203.478571 527.356875 
z
" clip-path="url(#pde3763b7eb)" style="fill: #0000ff"/>
   </g>
   <g id="patch_27">
    <path d="M 1283.192857 527.356875 
L 1346.964286 527.356875 
L 1346.964286 -2062.993965 
L 1283.192857 -2062.993965 
z
" clip-path="url(#pde3763b7eb)" style="fill: #0000ff"/>
   </g>
   <g id="patch_28">
    <path d="M 1362.907143 527.356875 
L 1426.678571 527.356875 
L 1426.678571 527.356875 
L 1362.907143 527.356875 
z
" clip-path="url(#pde3763b7eb)" style="fill: #0000ff"/>
   </g>
   <g id="patch_29">
    <path d="M 1442.621429 527.356875 
L 1506.392857 527.356875 
L 1506.392857 527.356875 
L 1442.621429 527.356875 
z
" clip-path="url(#pde3763b7eb)" style="fill: #0000ff"/>
   </g>
   <g id="patch_30">
    <path d="M 1522.335714 527.356875 
L 1586.107143 527.356875 
L 1586.107143 469.228035 
L 1522.335714 469.228035 
z
" clip-path="url(#pde3763b7eb)" style="fill: #0000ff"/>
   </g>
   <g id="patch_31">
    <path d="M 1602.05 527.356875 
L 1665.821429 527.356875 
L 1665.821429 356.712555 
L 1602.05 356.712555 
z
" clip-path="url(#pde3763b7eb)" style="fill: #0000ff"/>
   </g>
   <g id="patch_32">
    <path d="M 1681.764286 527.356875 
L 1745.535714 527.356875 
L 1745.535714 470.974395 
L 1681.764286 470.974395 
z
" clip-path="url(#pde3763b7eb)" style="fill: #0000ff"/>
   </g>
   <g id="patch_33">
    <path d="M 1761.478571 527.356875 
L 1825.25 527.356875 
L 1825.25 477.211395 
L 1761.478571 477.211395 
z
" clip-path="url(#pde3763b7eb)" style="fill: #0000ff"/>
   </g>
   <g id="patch_34">
    <path d="M 1841.192857 527.356875 
L 1904.964286 527.356875 
L 1904.964286 402.616875 
L 1841.192857 402.616875 
z
" clip-path="url(#pde3763b7eb)" style="fill: #0000ff"/>
   </g>
   <g id="patch_35">
    <path d="M 1920.907143 527.356875 
L 1984.678571 527.356875 
L 1984.678571 415.340355 
L 1920.907143 415.340355 
z
" clip-path="url(#pde3763b7eb)" style="fill: #0000ff"/>
   </g>
   <g id="patch_36">
    <path d="M 2000.621429 527.356875 
L 2064.392857 527.356875 
L 2064.392857 527.356875 
L 2000.621429 527.356875 
z
" clip-path="url(#pde3763b7eb)" style="fill: #0000ff"/>
   </g>
   <g id="patch_37">
    <path d="M 2080.335714 527.356875 
L 2144.107143 527.356875 
L 2144.107143 527.356875 
L 2080.335714 527.356875 
z
" clip-path="url(#pde3763b7eb)" style="fill: #0000ff"/>
   </g>
   <g id="patch_38">
    <path d="M 2160.05 527.356875 
L 2223.821429 527.356875 
L 2223.821429 88.022595 
L 2160.05 88.022595 
z
" clip-path="url(#pde3763b7eb)" style="fill: #0000ff"/>
   </g>
   <g id="patch_39">
    <path d="M 2239.764286 527.356875 
L 2303.535714 527.356875 
L 2303.535714 527.356875 
L 2239.764286 527.356875 
z
" clip-path="url(#pde3763b7eb)" style="fill: #0000ff"/>
   </g>
   <g id="patch_40">
    <path d="M 2319.478571 527.356875 
L 2383.25 527.356875 
L 2383.25 527.356875 
L 2319.478571 527.356875 
z
" clip-path="url(#pde3763b7eb)" style="fill: #0000ff"/>
   </g>
   <g id="patch_41">
    <path d="M 2399.192857 527.356875 
L 2462.964286 527.356875 
L 2462.964286 447.024315 
L 2399.192857 447.024315 
z
" clip-path="url(#pde3763b7eb)" style="fill: #0000ff"/>
   </g>
   <g id="patch_42">
    <path d="M 2478.907143 527.356875 
L 2542.678571 527.356875 
L 2542.678571 527.356875 
L 2478.907143 527.356875 
z
" clip-path="url(#pde3763b7eb)" style="fill: #0000ff"/>
   </g>
   <g id="patch_43">
    <path d="M 2558.621429 527.356875 
L 2622.392857 527.356875 
L 2622.392857 426.566955 
L 2558.621429 426.566955 
z
" clip-path="url(#pde3763b7eb)" style="fill: #0000ff"/>
   </g>
   <g id="patch_44">
    <path d="M 2638.335714 527.356875 
L 2702.107143 527.356875 
L 2702.107143 430.309155 
L 2638.335714 430.309155 
z
" clip-path="url(#pde3763b7eb)" style="fill: #0000ff"/>
   </g>
   <g id="patch_45">
    <path d="M 2718.05 527.356875 
L 2781.821429 527.356875 
L 2781.821429 422.325795 
L 2718.05 422.325795 
z
" clip-path="url(#pde3763b7eb)" style="fill: #0000ff"/>
   </g>
   <g id="patch_46">
    <path d="M 2797.764286 527.356875 
L 2861.535714 527.356875 
L 2861.535714 431.307075 
L 2797.764286 431.307075 
z
" clip-path="url(#pde3763b7eb)" style="fill: #0000ff"/>
   </g>
   <g id="patch_47">
    <path d="M 2877.478571 527.356875 
L 2941.25 527.356875 
L 2941.25 527.356875 
L 2877.478571 527.356875 
z
" clip-path="url(#pde3763b7eb)" style="fill: #0000ff"/>
   </g>
   <g id="patch_48">
    <path d="M 2957.192857 527.356875 
L 3020.964286 527.356875 
L 3020.964286 395.631435 
L 2957.192857 395.631435 
z
" clip-path="url(#pde3763b7eb)" style="fill: #0000ff"/>
   </g>
   <g id="patch_49">
    <path d="M 3036.907143 527.356875 
L 3100.678571 527.356875 
L 3100.678571 430.059675 
L 3036.907143 430.059675 
z
" clip-path="url(#pde3763b7eb)" style="fill: #0000ff"/>
   </g>
   <g id="patch_50">
    <path d="M 3116.621429 527.356875 
L 3180.392857 527.356875 
L 3180.392857 480.953595 
L 3116.621429 480.953595 
z
" clip-path="url(#pde3763b7eb)" style="fill: #0000ff"/>
   </g>
   <g id="patch_51">
    <path d="M 3196.335714 527.356875 
L 3260.107143 527.356875 
L 3260.107143 527.356875 
L 3196.335714 527.356875 
z
" clip-path="url(#pde3763b7eb)" style="fill: #0000ff"/>
   </g>
   <g id="patch_52">
    <path d="M 3276.05 527.356875 
L 3339.821429 527.356875 
L 3339.821429 527.356875 
L 3276.05 527.356875 
z
" clip-path="url(#pde3763b7eb)" style="fill: #0000ff"/>
   </g>
   <g id="patch_53">
    <path d="M 3355.764286 527.356875 
L 3419.535714 527.356875 
L 3419.535714 -232.060245 
L 3355.764286 -232.060245 
z
" clip-path="url(#pde3763b7eb)" style="fill: #0000ff"/>
   </g>
   <g id="patch_54">
    <path d="M 3435.478571 527.356875 
L 3499.25 527.356875 
L 3499.25 527.356875 
L 3435.478571 527.356875 
z
" clip-path="url(#pde3763b7eb)" style="fill: #0000ff"/>
   </g>
   <g id="patch_55">
    <path d="M 3515.192857 527.356875 
L 3578.964286 527.356875 
L 3578.964286 527.356875 
L 3515.192857 527.356875 
z
" clip-path="url(#pde3763b7eb)" style="fill: #0000ff"/>
   </g>
   <g id="patch_56">
    <path d="M 3594.907143 527.356875 
L 3658.678571 527.356875 
L 3658.678571 527.356875 
L 3594.907143 527.356875 
z
" clip-path="url(#pde3763b7eb)" style="fill: #0000ff"/>
   </g>
   <g id="patch_57">
    <path d="M 3674.621429 527.356875 
L 3738.392857 527.356875 
L 3738.392857 527.356875 
L 3674.621429 527.356875 
z
" clip-path="url(#pde3763b7eb)" style="fill: #0000ff"/>
   </g>
   <g id="patch_58">
    <path d="M 3754.335714 527.356875 
L 3818.107143 527.356875 
L 3818.107143 390.392355 
L 3754.335714 390.392355 
z
" clip-path="url(#pde3763b7eb)" style="fill: #0000ff"/>
   </g>
   <g id="patch_59">
    <path d="M 3834.05 527.356875 
L 3897.821429 527.356875 
L 3897.821429 438.541995 
L 3834.05 438.541995 
z
" clip-path="url(#pde3763b7eb)" style="fill: #0000ff"/>
   </g>
   <g id="patch_60">
    <path d="M 3913.764286 527.356875 
L 3977.535714 527.356875 
L 3977.535714 527.356875 
L 3913.764286 527.356875 
z
" clip-path="url(#pde3763b7eb)" style="fill: #0000ff"/>
   </g>
   <g id="patch_61">
    <path d="M 3993.478571 527.356875 
L 4057.25 527.356875 
L 4057.25 411.348675 
L 3993.478571 411.348675 
z
" clip-path="url(#pde3763b7eb)" style="fill: #0000ff"/>
   </g>
   <g id="patch_62">
    <path d="M 4073.192857 527.356875 
L 4136.964286 527.356875 
L 4136.964286 527.356875 
L 4073.192857 527.356875 
z
" clip-path="url(#pde3763b7eb)" style="fill: #0000ff"/>
   </g>
   <g id="patch_63">
    <path d="M 4152.907143 527.356875 
L 4216.678571 527.356875 
L 4216.678571 417.086715 
L 4152.907143 417.086715 
z
" clip-path="url(#pde3763b7eb)" style="fill: #0000ff"/>
   </g>
   <g id="patch_64">
    <path d="M 4232.621429 527.356875 
L 4296.392857 527.356875 
L 4296.392857 527.356875 
L 4232.621429 527.356875 
z
" clip-path="url(#pde3763b7eb)" style="fill: #0000ff"/>
   </g>
   <g id="patch_65">
    <path d="M 4312.335714 527.356875 
L 4376.107143 527.356875 
L 4376.107143 457.502475 
L 4312.335714 457.502475 
z
" clip-path="url(#pde3763b7eb)" style="fill: #0000ff"/>
   </g>
   <g id="patch_66">
    <path d="M 4392.05 527.356875 
L 4455.821429 527.356875 
L 4455.821429 527.356875 
L 4392.05 527.356875 
z
" clip-path="url(#pde3763b7eb)" style="fill: #0000ff"/>
   </g>
   <g id="patch_67">
    <path d="M 4471.764286 527.356875 
L 4535.535714 527.356875 
L 4535.535714 454.508715 
L 4471.764286 454.508715 
z
" clip-path="url(#pde3763b7eb)" style="fill: #0000ff"/>
   </g>
   <g id="patch_68">
    <path d="M 4551.478571 527.356875 
L 4615.25 527.356875 
L 4615.25 499.664595 
L 4551.478571 499.664595 
z
" clip-path="url(#pde3763b7eb)" style="fill: #0000ff"/>
   </g>
   <g id="patch_69">
    <path d="M 4631.192857 527.356875 
L 4694.964286 527.356875 
L 4694.964286 527.356875 
L 4631.192857 527.356875 
z
" clip-path="url(#pde3763b7eb)" style="fill: #0000ff"/>
   </g>
   <g id="patch_70">
    <path d="M 4710.907143 527.356875 
L 4774.678571 527.356875 
L 4774.678571 496.920315 
L 4710.907143 496.920315 
z
" clip-path="url(#pde3763b7eb)" style="fill: #0000ff"/>
   </g>
   <g id="patch_71">
    <path d="M 4790.621429 527.356875 
L 4854.392857 527.356875 
L 4854.392857 527.356875 
L 4790.621429 527.356875 
z
" clip-path="url(#pde3763b7eb)" style="fill: #0000ff"/>
   </g>
   <g id="patch_72">
    <path d="M 4870.335714 527.356875 
L 4934.107143 527.356875 
L 4934.107143 527.356875 
L 4870.335714 527.356875 
z
" clip-path="url(#pde3763b7eb)" style="fill: #0000ff"/>
   </g>
   <g id="patch_73">
    <path d="M 4950.05 527.356875 
L 5013.821429 527.356875 
L 5013.821429 78.043395 
L 4950.05 78.043395 
z
" clip-path="url(#pde3763b7eb)" style="fill: #0000ff"/>
   </g>
   <g id="patch_74">
    <path d="M 5029.764286 527.356875 
L 5093.535714 527.356875 
L 5093.535714 527.356875 
L 5029.764286 527.356875 
z
" clip-path="url(#pde3763b7eb)" style="fill: #0000ff"/>
   </g>
   <g id="patch_75">
    <path d="M 5109.478571 527.356875 
L 5173.25 527.356875 
L 5173.25 527.356875 
L 5109.478571 527.356875 
z
" clip-path="url(#pde3763b7eb)" style="fill: #0000ff"/>
   </g>
   <g id="patch_76">
    <path d="M 5189.192857 527.356875 
L 5252.964286 527.356875 
L 5252.964286 494.674995 
L 5189.192857 494.674995 
z
" clip-path="url(#pde3763b7eb)" style="fill: #0000ff"/>
   </g>
   <g id="patch_77">
    <path d="M 5268.907143 527.356875 
L 5332.678571 527.356875 
L 5332.678571 521.868315 
L 5268.907143 521.868315 
z
" clip-path="url(#pde3763b7eb)" style="fill: #0000ff"/>
   </g>
   <g id="patch_78">
    <path d="M 5348.621429 527.356875 
L 5412.392857 527.356875 
L 5412.392857 504.903675 
L 5348.621429 504.903675 
z
" clip-path="url(#pde3763b7eb)" style="fill: #0000ff"/>
   </g>
   <g id="patch_79">
    <path d="M 5428.335714 527.356875 
L 5492.107143 527.356875 
L 5492.107143 476.213475 
L 5428.335714 476.213475 
z
" clip-path="url(#pde3763b7eb)" style="fill: #0000ff"/>
   </g>
   <g id="patch_80">
    <path d="M 5508.05 527.356875 
L 5571.821429 527.356875 
L 5571.821429 522.866235 
L 5508.05 522.866235 
z
" clip-path="url(#pde3763b7eb)" style="fill: #0000ff"/>
   </g>
   <g id="patch_81">
    <path d="M 5587.764286 527.356875 
L 5651.535714 527.356875 
L 5651.535714 481.203075 
L 5587.764286 481.203075 
z
" clip-path="url(#pde3763b7eb)" style="fill: #0000ff"/>
   </g>
   <g id="patch_82">
    <path d="M 5667.478571 527.356875 
L 5731.25 527.356875 
L 5731.25 523.115715 
L 5667.478571 523.115715 
z
" clip-path="url(#pde3763b7eb)" style="fill: #0000ff"/>
   </g>
   <g id="patch_83">
    <path d="M 5747.192857 527.356875 
L 5810.964286 527.356875 
L 5810.964286 467.232195 
L 5747.192857 467.232195 
z
" clip-path="url(#pde3763b7eb)" style="fill: #0000ff"/>
   </g>
   <g id="patch_84">
    <path d="M 5826.907143 527.356875 
L 5890.678571 527.356875 
L 5890.678571 523.115715 
L 5826.907143 523.115715 
z
" clip-path="url(#pde3763b7eb)" style="fill: #0000ff"/>
   </g>
   <g id="patch_85">
    <path d="M 5906.621429 527.356875 
L 5970.392857 527.356875 
L 5970.392857 507.897435 
L 5906.621429 507.897435 
z
" clip-path="url(#pde3763b7eb)" style="fill: #0000ff"/>
   </g>
   <g id="patch_86">
    <path d="M 5986.335714 527.356875 
L 6050.107143 527.356875 
L 6050.107143 527.356875 
L 5986.335714 527.356875 
z
" clip-path="url(#pde3763b7eb)" style="fill: #0000ff"/>
   </g>
   <g id="patch_87">
    <path d="M 6066.05 527.356875 
L 6129.821429 527.356875 
L 6129.821429 510.392235 
L 6066.05 510.392235 
z
" clip-path="url(#pde3763b7eb)" style="fill: #0000ff"/>
   </g>
   <g id="patch_88">
    <path d="M 6145.764286 527.356875 
L 6209.535714 527.356875 
L 6209.535714 417.336195 
L 6145.764286 417.336195 
z
" clip-path="url(#pde3763b7eb)" style="fill: #0000ff"/>
   </g>
   <g id="patch_89">
    <path d="M 6225.478571 527.356875 
L 6289.25 527.356875 
L 6289.25 527.356875 
L 6225.478571 527.356875 
z
" clip-path="url(#pde3763b7eb)" style="fill: #0000ff"/>
   </g>
   <g id="patch_90">
    <path d="M 6305.192857 527.356875 
L 6368.964286 527.356875 
L 6368.964286 523.614675 
L 6305.192857 523.614675 
z
" clip-path="url(#pde3763b7eb)" style="fill: #0000ff"/>
   </g>
   <g id="patch_91">
    <path d="M 6384.907143 527.356875 
L 6448.678571 527.356875 
L 6448.678571 518.874555 
L 6384.907143 518.874555 
z
" clip-path="url(#pde3763b7eb)" style="fill: #0000ff"/>
   </g>
   <g id="patch_92">
    <path d="M 6464.621429 527.356875 
L 6528.392857 527.356875 
L 6528.392857 520.620915 
L 6464.621429 520.620915 
z
" clip-path="url(#pde3763b7eb)" style="fill: #0000ff"/>
   </g>
   <g id="patch_93">
    <path d="M 6544.335714 527.356875 
L 6608.107143 527.356875 
L 6608.107143 517.876635 
L 6544.335714 517.876635 
z
" clip-path="url(#pde3763b7eb)" style="fill: #0000ff"/>
   </g>
   <g id="patch_94">
    <path d="M 6624.05 527.356875 
L 6687.821429 527.356875 
L 6687.821429 497.918235 
L 6624.05 497.918235 
z
" clip-path="url(#pde3763b7eb)" style="fill: #0000ff"/>
   </g>
   <g id="patch_95">
    <path d="M 6703.764286 527.356875 
L 6767.535714 527.356875 
L 6767.535714 514.633395 
L 6703.764286 514.633395 
z
" clip-path="url(#pde3763b7eb)" style="fill: #0000ff"/>
   </g>
   <g id="patch_96">
    <path d="M 6783.478571 527.356875 
L 6847.25 527.356875 
L 6847.25 501.660435 
L 6783.478571 501.660435 
z
" clip-path="url(#pde3763b7eb)" style="fill: #0000ff"/>
   </g>
   <g id="patch_97">
    <path d="M 6863.192857 527.356875 
L 6926.964286 527.356875 
L 6926.964286 527.356875 
L 6863.192857 527.356875 
z
" clip-path="url(#pde3763b7eb)" style="fill: #0000ff"/>
   </g>
   <g id="patch_98">
    <path d="M 6942.907143 527.356875 
L 7006.678571 527.356875 
L 7006.678571 495.423435 
L 6942.907143 495.423435 
z
" clip-path="url(#pde3763b7eb)" style="fill: #0000ff"/>
   </g>
   <g id="patch_99">
    <path d="M 7022.621429 527.356875 
L 7086.392857 527.356875 
L 7086.392857 521.119875 
L 7022.621429 521.119875 
z
" clip-path="url(#pde3763b7eb)" style="fill: #0000ff"/>
   </g>
   <g id="patch_100">
    <path d="M 7102.335714 527.356875 
L 7166.107143 527.356875 
L 7166.107143 501.909915 
L 7102.335714 501.909915 
z
" clip-path="url(#pde3763b7eb)" style="fill: #0000ff"/>
   </g>
   <g id="patch_101">
    <path d="M 7182.05 527.356875 
L 7245.821429 527.356875 
L 7245.821429 520.870395 
L 7182.05 520.870395 
z
" clip-path="url(#pde3763b7eb)" style="fill: #0000ff"/>
   </g>
   <g id="patch_102">
    <path d="M 7261.764286 527.356875 
L 7325.535714 527.356875 
L 7325.535714 524.363115 
L 7261.764286 524.363115 
z
" clip-path="url(#pde3763b7eb)" style="fill: #0000ff"/>
   </g>
   <g id="patch_103">
    <path d="M 7341.478571 527.356875 
L 7405.25 527.356875 
L 7405.25 524.612595 
L 7341.478571 524.612595 
z
" clip-path="url(#pde3763b7eb)" style="fill: #0000ff"/>
   </g>
   <g id="patch_104">
    <path d="M 7421.192857 527.356875 
L 7484.964286 527.356875 
L 7484.964286 517.377675 
L 7421.192857 517.377675 
z
" clip-path="url(#pde3763b7eb)" style="fill: #0000ff"/>
   </g>
   <g id="patch_105">
    <path d="M 7500.907143 527.356875 
L 7564.678571 527.356875 
L 7564.678571 526.109475 
L 7500.907143 526.109475 
z
" clip-path="url(#pde3763b7eb)" style="fill: #0000ff"/>
   </g>
   <g id="patch_106">
    <path d="M 7580.621429 527.356875 
L 7644.392857 527.356875 
L 7644.392857 527.356875 
L 7580.621429 527.356875 
z
" clip-path="url(#pde3763b7eb)" style="fill: #0000ff"/>
   </g>
   <g id="patch_107">
    <path d="M 7660.335714 527.356875 
L 7724.107143 527.356875 
L 7724.107143 518.625075 
L 7660.335714 518.625075 
z
" clip-path="url(#pde3763b7eb)" style="fill: #0000ff"/>
   </g>
   <g id="patch_108">
    <path d="M 7740.05 527.356875 
L 7803.821429 527.356875 
L 7803.821429 70.558995 
L 7740.05 70.558995 
z
" clip-path="url(#pde3763b7eb)" style="fill: #0000ff"/>
   </g>
   <g id="patch_109">
    <path d="M 7819.764286 527.356875 
L 7883.535714 527.356875 
L 7883.535714 527.356875 
L 7819.764286 527.356875 
z
" clip-path="url(#pde3763b7eb)" style="fill: #0000ff"/>
   </g>
   <g id="patch_110">
    <path d="M 7899.478571 527.356875 
L 7963.25 527.356875 
L 7963.25 523.614675 
L 7899.478571 523.614675 
z
" clip-path="url(#pde3763b7eb)" style="fill: #0000ff"/>
   </g>
   <g id="patch_111">
    <path d="M 7979.192857 527.356875 
L 8042.964286 527.356875 
L 8042.964286 527.356875 
L 7979.192857 527.356875 
z
" clip-path="url(#pde3763b7eb)" style="fill: #0000ff"/>
   </g>
   <g id="patch_112">
    <path d="M 8058.907143 527.356875 
L 8122.678571 527.356875 
L 8122.678571 526.608435 
L 8058.907143 526.608435 
z
" clip-path="url(#pde3763b7eb)" style="fill: #0000ff"/>
   </g>
   <g id="patch_113">
    <path d="M 8138.621429 527.356875 
L 8202.392857 527.356875 
L 8202.392857 520.121955 
L 8138.621429 520.121955 
z
" clip-path="url(#pde3763b7eb)" style="fill: #0000ff"/>
   </g>
   <g id="patch_114">
    <path d="M 8218.335714 527.356875 
L 8282.107143 527.356875 
L 8282.107143 527.356875 
L 8218.335714 527.356875 
z
" clip-path="url(#pde3763b7eb)" style="fill: #0000ff"/>
   </g>
   <g id="patch_115">
    <path d="M 8298.05 527.356875 
L 8361.821429 527.356875 
L 8361.821429 527.356875 
L 8298.05 527.356875 
z
" clip-path="url(#pde3763b7eb)" style="fill: #0000ff"/>
   </g>
   <g id="patch_116">
    <path d="M 8377.764286 527.356875 
L 8441.535714 527.356875 
L 8441.535714 527.356875 
L 8377.764286 527.356875 
z
" clip-path="url(#pde3763b7eb)" style="fill: #0000ff"/>
   </g>
   <g id="patch_117">
    <path d="M 8457.478571 527.356875 
L 8521.25 527.356875 
L 8521.25 520.121955 
L 8457.478571 520.121955 
z
" clip-path="url(#pde3763b7eb)" style="fill: #0000ff"/>
   </g>
   <g id="patch_118">
    <path d="M 8537.192857 527.356875 
L 8600.964286 527.356875 
L 8600.964286 527.356875 
L 8537.192857 527.356875 
z
" clip-path="url(#pde3763b7eb)" style="fill: #0000ff"/>
   </g>
   <g id="patch_119">
    <path d="M 8616.907143 527.356875 
L 8680.678571 527.356875 
L 8680.678571 527.356875 
L 8616.907143 527.356875 
z
" clip-path="url(#pde3763b7eb)" style="fill: #0000ff"/>
   </g>
   <g id="patch_120">
    <path d="M 8696.621429 527.356875 
L 8760.392857 527.356875 
L 8760.392857 522.117795 
L 8696.621429 522.117795 
z
" clip-path="url(#pde3763b7eb)" style="fill: #0000ff"/>
   </g>
   <g id="patch_121">
    <path d="M 8776.335714 527.356875 
L 8840.107143 527.356875 
L 8840.107143 527.356875 
L 8776.335714 527.356875 
z
" clip-path="url(#pde3763b7eb)" style="fill: #0000ff"/>
   </g>
   <g id="patch_122">
    <path d="M 8856.05 527.356875 
L 8919.821429 527.356875 
L 8919.821429 526.857915 
L 8856.05 526.857915 
z
" clip-path="url(#pde3763b7eb)" style="fill: #0000ff"/>
   </g>
   <g id="patch_123">
    <path d="M 8935.764286 527.356875 
L 8999.535714 527.356875 
L 8999.535714 522.367275 
L 8935.764286 522.367275 
z
" clip-path="url(#pde3763b7eb)" style="fill: #0000ff"/>
   </g>
   <g id="patch_124">
    <path d="M 9015.478571 527.356875 
L 9079.25 527.356875 
L 9079.25 527.356875 
L 9015.478571 527.356875 
z
" clip-path="url(#pde3763b7eb)" style="fill: #0000ff"/>
   </g>
   <g id="patch_125">
    <path d="M 9095.192857 527.356875 
L 9158.964286 527.356875 
L 9158.964286 527.356875 
L 9095.192857 527.356875 
z
" clip-path="url(#pde3763b7eb)" style="fill: #0000ff"/>
   </g>
   <g id="patch_126">
    <path d="M 9174.907143 527.356875 
L 9238.678571 527.356875 
L 9238.678571 519.622995 
L 9174.907143 519.622995 
z
" clip-path="url(#pde3763b7eb)" style="fill: #0000ff"/>
   </g>
   <g id="patch_127">
    <path d="M 9254.621429 527.356875 
L 9318.392857 527.356875 
L 9318.392857 527.107395 
L 9254.621429 527.107395 
z
" clip-path="url(#pde3763b7eb)" style="fill: #0000ff"/>
   </g>
   <g id="patch_128">
    <path d="M 9334.335714 527.356875 
L 9398.107143 527.356875 
L 9398.107143 527.356875 
L 9334.335714 527.356875 
z
" clip-path="url(#pde3763b7eb)" style="fill: #0000ff"/>
   </g>
   <g id="patch_129">
    <path d="M 9414.05 527.356875 
L 9477.821429 527.356875 
L 9477.821429 515.880795 
L 9414.05 515.880795 
z
" clip-path="url(#pde3763b7eb)" style="fill: #0000ff"/>
   </g>
   <g id="patch_130">
    <path d="M 9493.764286 527.356875 
L 9557.535714 527.356875 
L 9557.535714 527.356875 
L 9493.764286 527.356875 
z
" clip-path="url(#pde3763b7eb)" style="fill: #0000ff"/>
   </g>
   <g id="patch_131">
    <path d="M 9573.478571 527.356875 
L 9637.25 527.356875 
L 9637.25 521.868315 
L 9573.478571 521.868315 
z
" clip-path="url(#pde3763b7eb)" style="fill: #0000ff"/>
   </g>
   <g id="patch_132">
    <path d="M 9653.192857 527.356875 
L 9716.964286 527.356875 
L 9716.964286 527.356875 
L 9653.192857 527.356875 
z
" clip-path="url(#pde3763b7eb)" style="fill: #0000ff"/>
   </g>
   <g id="patch_133">
    <path d="M 9732.907143 527.356875 
L 9796.678571 527.356875 
L 9796.678571 525.111555 
L 9732.907143 525.111555 
z
" clip-path="url(#pde3763b7eb)" style="fill: #0000ff"/>
   </g>
   <g id="patch_134">
    <path d="M 9812.621429 527.356875 
L 9876.392857 527.356875 
L 9876.392857 521.618835 
L 9812.621429 521.618835 
z
" clip-path="url(#pde3763b7eb)" style="fill: #0000ff"/>
   </g>
   <g id="patch_135">
    <path d="M 9892.335714 527.356875 
L 9956.107143 527.356875 
L 9956.107143 527.356875 
L 9892.335714 527.356875 
z
" clip-path="url(#pde3763b7eb)" style="fill: #0000ff"/>
   </g>
   <g id="patch_136">
    <path d="M 9972.05 527.356875 
L 10035.821429 527.356875 
L 10035.821429 527.356875 
L 9972.05 527.356875 
z
" clip-path="url(#pde3763b7eb)" style="fill: #0000ff"/>
   </g>
   <g id="patch_137">
    <path d="M 10051.764286 527.356875 
L 10115.535714 527.356875 
L 10115.535714 520.121955 
L 10051.764286 520.121955 
z
" clip-path="url(#pde3763b7eb)" style="fill: #0000ff"/>
   </g>
   <g id="patch_138">
    <path d="M 10131.478571 527.356875 
L 10195.25 527.356875 
L 10195.25 526.608435 
L 10131.478571 526.608435 
z
" clip-path="url(#pde3763b7eb)" style="fill: #0000ff"/>
   </g>
   <g id="patch_139">
    <path d="M 10211.192857 527.356875 
L 10274.964286 527.356875 
L 10274.964286 522.117795 
L 10211.192857 522.117795 
z
" clip-path="url(#pde3763b7eb)" style="fill: #0000ff"/>
   </g>
   <g id="patch_140">
    <path d="M 10290.907143 527.356875 
L 10354.678571 527.356875 
L 10354.678571 527.356875 
L 10290.907143 527.356875 
z
" clip-path="url(#pde3763b7eb)" style="fill: #0000ff"/>
   </g>
   <g id="patch_141">
    <path d="M 10370.621429 527.356875 
L 10434.392857 527.356875 
L 10434.392857 527.356875 
L 10370.621429 527.356875 
z
" clip-path="url(#pde3763b7eb)" style="fill: #0000ff"/>
   </g>
   <g id="patch_142">
    <path d="M 10450.335714 527.356875 
L 10514.107143 527.356875 
L 10514.107143 520.620915 
L 10450.335714 520.620915 
z
" clip-path="url(#pde3763b7eb)" style="fill: #0000ff"/>
   </g>
   <g id="patch_143">
    <path d="M 10530.05 527.356875 
L 10593.821429 527.356875 
L 10593.821429 527.356875 
L 10530.05 527.356875 
z
" clip-path="url(#pde3763b7eb)" style="fill: #0000ff"/>
   </g>
   <g id="patch_144">
    <path d="M 10609.764286 527.356875 
L 10673.535714 527.356875 
L 10673.535714 521.119875 
L 10609.764286 521.119875 
z
" clip-path="url(#pde3763b7eb)" style="fill: #0000ff"/>
   </g>
   <g id="patch_145">
    <path d="M 10689.478571 527.356875 
L 10753.25 527.356875 
L 10753.25 527.356875 
L 10689.478571 527.356875 
z
" clip-path="url(#pde3763b7eb)" style="fill: #0000ff"/>
   </g>
   <g id="patch_146">
    <path d="M 10769.192857 527.356875 
L 10832.964286 527.356875 
L 10832.964286 521.369355 
L 10769.192857 521.369355 
z
" clip-path="url(#pde3763b7eb)" style="fill: #0000ff"/>
   </g>
   <g id="patch_147">
    <path d="M 10848.907143 527.356875 
L 10912.678571 527.356875 
L 10912.678571 527.356875 
L 10848.907143 527.356875 
z
" clip-path="url(#pde3763b7eb)" style="fill: #0000ff"/>
   </g>
   <g id="patch_148">
    <path d="M 10928.621429 527.356875 
L 10992.392857 527.356875 
L 10992.392857 527.356875 
L 10928.621429 527.356875 
z
" clip-path="url(#pde3763b7eb)" style="fill: #0000ff"/>
   </g>
   <g id="patch_149">
    <path d="M 11008.335714 527.356875 
L 11072.107143 527.356875 
L 11072.107143 521.119875 
L 11008.335714 521.119875 
z
" clip-path="url(#pde3763b7eb)" style="fill: #0000ff"/>
   </g>
   <g id="patch_150">
    <path d="M 11088.05 527.356875 
L 11151.821429 527.356875 
L 11151.821429 525.859995 
L 11088.05 525.859995 
z
" clip-path="url(#pde3763b7eb)" style="fill: #0000ff"/>
   </g>
   <g id="patch_151">
    <path d="M 11167.764286 527.356875 
L 11231.535714 527.356875 
L 11231.535714 521.868315 
L 11167.764286 521.868315 
z
" clip-path="url(#pde3763b7eb)" style="fill: #0000ff"/>
   </g>
   <g id="patch_152">
    <path d="M 11247.478571 527.356875 
L 11311.25 527.356875 
L 11311.25 527.356875 
L 11247.478571 527.356875 
z
" clip-path="url(#pde3763b7eb)" style="fill: #0000ff"/>
   </g>
   <g id="patch_153">
    <path d="M 11327.192857 527.356875 
L 11390.964286 527.356875 
L 11390.964286 527.356875 
L 11327.192857 527.356875 
z
" clip-path="url(#pde3763b7eb)" style="fill: #0000ff"/>
   </g>
   <g id="patch_154">
    <path d="M 11406.907143 527.356875 
L 11470.678571 527.356875 
L 11470.678571 523.614675 
L 11406.907143 523.614675 
z
" clip-path="url(#pde3763b7eb)" style="fill: #0000ff"/>
   </g>
   <g id="patch_155">
    <path d="M 11486.621429 527.356875 
L 11550.392857 527.356875 
L 11550.392857 527.356875 
L 11486.621429 527.356875 
z
" clip-path="url(#pde3763b7eb)" style="fill: #0000ff"/>
   </g>
   <g id="patch_156">
    <path d="M 11566.335714 527.356875 
L 11630.107143 527.356875 
L 11630.107143 522.616755 
L 11566.335714 522.616755 
z
" clip-path="url(#pde3763b7eb)" style="fill: #0000ff"/>
   </g>
   <g id="patch_157">
    <path d="M 11646.05 527.356875 
L 11709.821429 527.356875 
L 11709.821429 526.358955 
L 11646.05 526.358955 
z
" clip-path="url(#pde3763b7eb)" style="fill: #0000ff"/>
   </g>
   <g id="patch_158">
    <path d="M 11725.764286 527.356875 
L 11789.535714 527.356875 
L 11789.535714 521.119875 
L 11725.764286 521.119875 
z
" clip-path="url(#pde3763b7eb)" style="fill: #0000ff"/>
   </g>
   <g id="patch_159">
    <path d="M 11805.478571 527.356875 
L 11869.25 527.356875 
L 11869.25 527.356875 
L 11805.478571 527.356875 
z
" clip-path="url(#pde3763b7eb)" style="fill: #0000ff"/>
   </g>
   <g id="patch_160">
    <path d="M 11885.192857 527.356875 
L 11948.964286 527.356875 
L 11948.964286 527.356875 
L 11885.192857 527.356875 
z
" clip-path="url(#pde3763b7eb)" style="fill: #0000ff"/>
   </g>
   <g id="patch_161">
    <path d="M 11964.907143 527.356875 
L 12028.678571 527.356875 
L 12028.678571 518.874555 
L 11964.907143 518.874555 
z
" clip-path="url(#pde3763b7eb)" style="fill: #0000ff"/>
   </g>
   <g id="patch_162">
    <path d="M 12044.621429 527.356875 
L 12108.392857 527.356875 
L 12108.392857 527.356875 
L 12044.621429 527.356875 
z
" clip-path="url(#pde3763b7eb)" style="fill: #0000ff"/>
   </g>
   <g id="patch_163">
    <path d="M 12124.335714 527.356875 
L 12188.107143 527.356875 
L 12188.107143 523.115715 
L 12124.335714 523.115715 
z
" clip-path="url(#pde3763b7eb)" style="fill: #0000ff"/>
   </g>
   <g id="patch_164">
    <path d="M 12204.05 527.356875 
L 12267.821429 527.356875 
L 12267.821429 526.358955 
L 12204.05 526.358955 
z
" clip-path="url(#pde3763b7eb)" style="fill: #0000ff"/>
   </g>
   <g id="patch_165">
    <path d="M 12283.764286 527.356875 
L 12347.535714 527.356875 
L 12347.535714 527.356875 
L 12283.764286 527.356875 
z
" clip-path="url(#pde3763b7eb)" style="fill: #0000ff"/>
   </g>
   <g id="patch_166">
    <path d="M 12363.478571 527.356875 
L 12427.25 527.356875 
L 12427.25 524.612595 
L 12363.478571 524.612595 
z
" clip-path="url(#pde3763b7eb)" style="fill: #0000ff"/>
   </g>
   <g id="patch_167">
    <path d="M 12443.192857 527.356875 
L 12506.964286 527.356875 
L 12506.964286 527.356875 
L 12443.192857 527.356875 
z
" clip-path="url(#pde3763b7eb)" style="fill: #0000ff"/>
   </g>
   <g id="patch_168">
    <path d="M 12522.907143 527.356875 
L 12586.678571 527.356875 
L 12586.678571 527.356875 
L 12522.907143 527.356875 
z
" clip-path="url(#pde3763b7eb)" style="fill: #0000ff"/>
   </g>
   <g id="patch_169">
    <path d="M 12602.621429 527.356875 
L 12666.392857 527.356875 
L 12666.392857 521.618835 
L 12602.621429 521.618835 
z
" clip-path="url(#pde3763b7eb)" style="fill: #0000ff"/>
   </g>
   <g id="patch_170">
    <path d="M 12682.335714 527.356875 
L 12746.107143 527.356875 
L 12746.107143 527.356875 
L 12682.335714 527.356875 
z
" clip-path="url(#pde3763b7eb)" style="fill: #0000ff"/>
   </g>
   <g id="patch_171">
    <path d="M 12762.05 527.356875 
L 12825.821429 527.356875 
L 12825.821429 526.857915 
L 12762.05 526.857915 
z
" clip-path="url(#pde3763b7eb)" style="fill: #0000ff"/>
   </g>
   <g id="patch_172">
    <path d="M 12841.764286 527.356875 
L 12905.535714 527.356875 
L 12905.535714 519.622995 
L 12841.764286 519.622995 
z
" clip-path="url(#pde3763b7eb)" style="fill: #0000ff"/>
   </g>
   <g id="patch_173">
    <path d="M 12921.478571 527.356875 
L 12985.25 527.356875 
L 12985.25 527.356875 
L 12921.478571 527.356875 
z
" clip-path="url(#pde3763b7eb)" style="fill: #0000ff"/>
   </g>
   <g id="patch_174">
    <path d="M 13001.192857 527.356875 
L 13064.964286 527.356875 
L 13064.964286 524.862075 
L 13001.192857 524.862075 
z
" clip-path="url(#pde3763b7eb)" style="fill: #0000ff"/>
   </g>
   <g id="patch_175">
    <path d="M 13080.907143 527.356875 
L 13144.678571 527.356875 
L 13144.678571 527.356875 
L 13080.907143 527.356875 
z
" clip-path="url(#pde3763b7eb)" style="fill: #0000ff"/>
   </g>
   <g id="patch_176">
    <path d="M 13160.621429 527.356875 
L 13224.392857 527.356875 
L 13224.392857 527.356875 
L 13160.621429 527.356875 
z
" clip-path="url(#pde3763b7eb)" style="fill: #0000ff"/>
   </g>
   <g id="patch_177">
    <path d="M 13240.335714 527.356875 
L 13304.107143 527.356875 
L 13304.107143 520.371435 
L 13240.335714 520.371435 
z
" clip-path="url(#pde3763b7eb)" style="fill: #0000ff"/>
   </g>
   <g id="patch_178">
    <path d="M 13320.05 527.356875 
L 13383.821429 527.356875 
L 13383.821429 526.608435 
L 13320.05 526.608435 
z
" clip-path="url(#pde3763b7eb)" style="fill: #0000ff"/>
   </g>
   <g id="patch_179">
    <path d="M 13399.764286 527.356875 
L 13463.535714 527.356875 
L 13463.535714 522.866235 
L 13399.764286 522.866235 
z
" clip-path="url(#pde3763b7eb)" style="fill: #0000ff"/>
   </g>
   <g id="patch_180">
    <path d="M 13479.478571 527.356875 
L 13543.25 527.356875 
L 13543.25 527.356875 
L 13479.478571 527.356875 
z
" clip-path="url(#pde3763b7eb)" style="fill: #0000ff"/>
   </g>
   <g id="patch_181">
    <path d="M 13559.192857 527.356875 
L 13622.964286 527.356875 
L 13622.964286 527.356875 
L 13559.192857 527.356875 
z
" clip-path="url(#pde3763b7eb)" style="fill: #0000ff"/>
   </g>
   <g id="patch_182">
    <path d="M 13638.907143 527.356875 
L 13702.678571 527.356875 
L 13702.678571 523.115715 
L 13638.907143 523.115715 
z
" clip-path="url(#pde3763b7eb)" style="fill: #0000ff"/>
   </g>
   <g id="patch_183">
    <path d="M 13718.621429 527.356875 
L 13782.392857 527.356875 
L 13782.392857 527.356875 
L 13718.621429 527.356875 
z
" clip-path="url(#pde3763b7eb)" style="fill: #0000ff"/>
   </g>
   <g id="patch_184">
    <path d="M 13798.335714 527.356875 
L 13862.107143 527.356875 
L 13862.107143 527.356875 
L 13798.335714 527.356875 
z
" clip-path="url(#pde3763b7eb)" style="fill: #0000ff"/>
   </g>
   <g id="patch_185">
    <path d="M 13878.05 527.356875 
L 13941.821429 527.356875 
L 13941.821429 523.115715 
L 13878.05 523.115715 
z
" clip-path="url(#pde3763b7eb)" style="fill: #0000ff"/>
   </g>
   <g id="patch_186">
    <path d="M 13957.764286 527.356875 
L 14021.535714 527.356875 
L 14021.535714 526.608435 
L 13957.764286 526.608435 
z
" clip-path="url(#pde3763b7eb)" style="fill: #0000ff"/>
   </g>
   <g id="patch_187">
    <path d="M 14037.478571 527.356875 
L 14101.25 527.356875 
L 14101.25 527.356875 
L 14037.478571 527.356875 
z
" clip-path="url(#pde3763b7eb)" style="fill: #0000ff"/>
   </g>
   <g id="patch_188">
    <path d="M 14117.192857 527.356875 
L 14180.964286 527.356875 
L 14180.964286 521.868315 
L 14117.192857 521.868315 
z
" clip-path="url(#pde3763b7eb)" style="fill: #0000ff"/>
   </g>
   <g id="patch_189">
    <path d="M 14196.907143 527.356875 
L 14260.678571 527.356875 
L 14260.678571 527.356875 
L 14196.907143 527.356875 
z
" clip-path="url(#pde3763b7eb)" style="fill: #0000ff"/>
   </g>
   <g id="patch_190">
    <path d="M 14276.621429 527.356875 
L 14340.392857 527.356875 
L 14340.392857 527.356875 
L 14276.621429 527.356875 
z
" clip-path="url(#pde3763b7eb)" style="fill: #0000ff"/>
   </g>
   <g id="patch_191">
    <path d="M 14356.335714 527.356875 
L 14420.107143 527.356875 
L 14420.107143 521.868315 
L 14356.335714 521.868315 
z
" clip-path="url(#pde3763b7eb)" style="fill: #0000ff"/>
   </g>
   <g id="patch_192">
    <path d="M 14436.05 527.356875 
L 14499.821429 527.356875 
L 14499.821429 527.356875 
L 14436.05 527.356875 
z
" clip-path="url(#pde3763b7eb)" style="fill: #0000ff"/>
   </g>
   <g id="patch_193">
    <path d="M 14515.764286 527.356875 
L 14579.535714 527.356875 
L 14579.535714 521.369355 
L 14515.764286 521.369355 
z
" clip-path="url(#pde3763b7eb)" style="fill: #0000ff"/>
   </g>
   <g id="patch_194">
    <path d="M 14595.478571 527.356875 
L 14659.25 527.356875 
L 14659.25 526.109475 
L 14595.478571 526.109475 
z
" clip-path="url(#pde3763b7eb)" style="fill: #0000ff"/>
   </g>
   <g id="patch_195">
    <path d="M 14675.192857 527.356875 
L 14738.964286 527.356875 
L 14738.964286 527.356875 
L 14675.192857 527.356875 
z
" clip-path="url(#pde3763b7eb)" style="fill: #0000ff"/>
   </g>
   <g id="patch_196">
    <path d="M 14754.907143 527.356875 
L 14818.678571 527.356875 
L 14818.678571 527.356875 
L 14754.907143 527.356875 
z
" clip-path="url(#pde3763b7eb)" style="fill: #0000ff"/>
   </g>
   <g id="patch_197">
    <path d="M 14834.621429 527.356875 
L 14898.392857 527.356875 
L 14898.392857 527.356875 
L 14834.621429 527.356875 
z
" clip-path="url(#pde3763b7eb)" style="fill: #0000ff"/>
   </g>
   <g id="patch_198">
    <path d="M 14914.335714 527.356875 
L 14978.107143 527.356875 
L 14978.107143 527.356875 
L 14914.335714 527.356875 
z
" clip-path="url(#pde3763b7eb)" style="fill: #0000ff"/>
   </g>
   <g id="patch_199">
    <path d="M 14994.05 527.356875 
L 15057.821429 527.356875 
L 15057.821429 527.356875 
L 14994.05 527.356875 
z
" clip-path="url(#pde3763b7eb)" style="fill: #0000ff"/>
   </g>
   <g id="patch_200">
    <path d="M 15073.764286 527.356875 
L 15137.535714 527.356875 
L 15137.535714 527.356875 
L 15073.764286 527.356875 
z
" clip-path="url(#pde3763b7eb)" style="fill: #0000ff"/>
   </g>
   <g id="patch_201">
    <path d="M 15153.478571 527.356875 
L 15217.25 527.356875 
L 15217.25 527.356875 
L 15153.478571 527.356875 
z
" clip-path="url(#pde3763b7eb)" style="fill: #0000ff"/>
   </g>
   <g id="patch_202">
    <path d="M 15233.192857 527.356875 
L 15296.964286 527.356875 
L 15296.964286 527.356875 
L 15233.192857 527.356875 
z
" clip-path="url(#pde3763b7eb)" style="fill: #0000ff"/>
   </g>
   <g id="patch_203">
    <path d="M 15312.907143 527.356875 
L 15376.678571 527.356875 
L 15376.678571 449.020155 
L 15312.907143 449.020155 
z
" clip-path="url(#pde3763b7eb)" style="fill: #0000ff"/>
   </g>
   <g id="patch_204">
    <path d="M 15392.621429 527.356875 
L 15456.392857 527.356875 
L 15456.392857 527.356875 
L 15392.621429 527.356875 
z
" clip-path="url(#pde3763b7eb)" style="fill: #0000ff"/>
   </g>
   <g id="patch_205">
    <path d="M 15472.335714 527.356875 
L 15536.107143 527.356875 
L 15536.107143 527.356875 
L 15472.335714 527.356875 
z
" clip-path="url(#pde3763b7eb)" style="fill: #0000ff"/>
   </g>
   <g id="patch_206">
    <path d="M 15552.05 527.356875 
L 15615.821429 527.356875 
L 15615.821429 527.356875 
L 15552.05 527.356875 
z
" clip-path="url(#pde3763b7eb)" style="fill: #0000ff"/>
   </g>
   <g id="patch_207">
    <path d="M 15631.764286 527.356875 
L 15695.535714 527.356875 
L 15695.535714 527.356875 
L 15631.764286 527.356875 
z
" clip-path="url(#pde3763b7eb)" style="fill: #0000ff"/>
   </g>
   <g id="patch_208">
    <path d="M 15711.478571 527.356875 
L 15775.25 527.356875 
L 15775.25 527.356875 
L 15711.478571 527.356875 
z
" clip-path="url(#pde3763b7eb)" style="fill: #0000ff"/>
   </g>
   <g id="patch_209">
    <path d="M 15791.192857 527.356875 
L 15854.964286 527.356875 
L 15854.964286 527.356875 
L 15791.192857 527.356875 
z
" clip-path="url(#pde3763b7eb)" style="fill: #0000ff"/>
   </g>
   <g id="patch_210">
    <path d="M 15870.907143 527.356875 
L 15934.678571 527.356875 
L 15934.678571 527.356875 
L 15870.907143 527.356875 
z
" clip-path="url(#pde3763b7eb)" style="fill: #0000ff"/>
   </g>
   <g id="patch_211">
    <path d="M 15950.621429 527.356875 
L 16014.392857 527.356875 
L 16014.392857 527.356875 
L 15950.621429 527.356875 
z
" clip-path="url(#pde3763b7eb)" style="fill: #0000ff"/>
   </g>
   <g id="patch_212">
    <path d="M 16030.335714 527.356875 
L 16094.107143 527.356875 
L 16094.107143 526.109475 
L 16030.335714 526.109475 
z
" clip-path="url(#pde3763b7eb)" style="fill: #0000ff"/>
   </g>
   <g id="patch_213">
    <path d="M 16110.05 527.356875 
L 16173.821429 527.356875 
L 16173.821429 527.356875 
L 16110.05 527.356875 
z
" clip-path="url(#pde3763b7eb)" style="fill: #0000ff"/>
   </g>
   <g id="patch_214">
    <path d="M 16189.764286 527.356875 
L 16253.535714 527.356875 
L 16253.535714 527.356875 
L 16189.764286 527.356875 
z
" clip-path="url(#pde3763b7eb)" style="fill: #0000ff"/>
   </g>
   <g id="patch_215">
    <path d="M 16269.478571 527.356875 
L 16333.25 527.356875 
L 16333.25 527.356875 
L 16269.478571 527.356875 
z
" clip-path="url(#pde3763b7eb)" style="fill: #0000ff"/>
   </g>
   <g id="patch_216">
    <path d="M 16349.192857 527.356875 
L 16412.964286 527.356875 
L 16412.964286 527.356875 
L 16349.192857 527.356875 
z
" clip-path="url(#pde3763b7eb)" style="fill: #0000ff"/>
   </g>
   <g id="patch_217">
    <path d="M 16428.907143 527.356875 
L 16492.678571 527.356875 
L 16492.678571 527.356875 
L 16428.907143 527.356875 
z
" clip-path="url(#pde3763b7eb)" style="fill: #0000ff"/>
   </g>
   <g id="patch_218">
    <path d="M 16508.621429 527.356875 
L 16572.392857 527.356875 
L 16572.392857 527.356875 
L 16508.621429 527.356875 
z
" clip-path="url(#pde3763b7eb)" style="fill: #0000ff"/>
   </g>
   <g id="patch_219">
    <path d="M 16588.335714 527.356875 
L 16652.107143 527.356875 
L 16652.107143 527.356875 
L 16588.335714 527.356875 
z
" clip-path="url(#pde3763b7eb)" style="fill: #0000ff"/>
   </g>
   <g id="patch_220">
    <path d="M 16668.05 527.356875 
L 16731.821429 527.356875 
L 16731.821429 527.356875 
L 16668.05 527.356875 
z
" clip-path="url(#pde3763b7eb)" style="fill: #0000ff"/>
   </g>
   <g id="patch_221">
    <path d="M 16747.764286 527.356875 
L 16811.535714 527.356875 
L 16811.535714 525.361035 
L 16747.764286 525.361035 
z
" clip-path="url(#pde3763b7eb)" style="fill: #0000ff"/>
   </g>
   <g id="patch_222">
    <path d="M 16827.478571 527.356875 
L 16891.25 527.356875 
L 16891.25 527.356875 
L 16827.478571 527.356875 
z
" clip-path="url(#pde3763b7eb)" style="fill: #0000ff"/>
   </g>
   <g id="patch_223">
    <path d="M 16907.192857 527.356875 
L 16970.964286 527.356875 
L 16970.964286 527.356875 
L 16907.192857 527.356875 
z
" clip-path="url(#pde3763b7eb)" style="fill: #0000ff"/>
   </g>
   <g id="patch_224">
    <path d="M 16986.907143 527.356875 
L 17050.678571 527.356875 
L 17050.678571 527.356875 
L 16986.907143 527.356875 
z
" clip-path="url(#pde3763b7eb)" style="fill: #0000ff"/>
   </g>
   <g id="patch_225">
    <path d="M 17066.621429 527.356875 
L 17130.392857 527.356875 
L 17130.392857 527.356875 
L 17066.621429 527.356875 
z
" clip-path="url(#pde3763b7eb)" style="fill: #0000ff"/>
   </g>
   <g id="patch_226">
    <path d="M 17146.335714 527.356875 
L 17210.107143 527.356875 
L 17210.107143 527.356875 
L 17146.335714 527.356875 
z
" clip-path="url(#pde3763b7eb)" style="fill: #0000ff"/>
   </g>
   <g id="patch_227">
    <path d="M 17226.05 527.356875 
L 17289.821429 527.356875 
L 17289.821429 527.356875 
L 17226.05 527.356875 
z
" clip-path="url(#pde3763b7eb)" style="fill: #0000ff"/>
   </g>
   <g id="patch_228">
    <path d="M 17305.764286 527.356875 
L 17369.535714 527.356875 
L 17369.535714 527.356875 
L 17305.764286 527.356875 
z
" clip-path="url(#pde3763b7eb)" style="fill: #0000ff"/>
   </g>
   <g id="patch_229">
    <path d="M 17385.478571 527.356875 
L 17449.25 527.356875 
L 17449.25 527.356875 
L 17385.478571 527.356875 
z
" clip-path="url(#pde3763b7eb)" style="fill: #0000ff"/>
   </g>
   <g id="patch_230">
    <path d="M 17465.192857 527.356875 
L 17528.964286 527.356875 
L 17528.964286 527.356875 
L 17465.192857 527.356875 
z
" clip-path="url(#pde3763b7eb)" style="fill: #0000ff"/>
   </g>
   <g id="patch_231">
    <path d="M 17544.907143 527.356875 
L 17608.678571 527.356875 
L 17608.678571 526.109475 
L 17544.907143 526.109475 
z
" clip-path="url(#pde3763b7eb)" style="fill: #0000ff"/>
   </g>
   <g id="patch_232">
    <path d="M 17624.621429 527.356875 
L 17688.392857 527.356875 
L 17688.392857 527.356875 
L 17624.621429 527.356875 
z
" clip-path="url(#pde3763b7eb)" style="fill: #0000ff"/>
   </g>
   <g id="patch_233">
    <path d="M 17704.335714 527.356875 
L 17768.107143 527.356875 
L 17768.107143 527.356875 
L 17704.335714 527.356875 
z
" clip-path="url(#pde3763b7eb)" style="fill: #0000ff"/>
   </g>
   <g id="patch_234">
    <path d="M 17784.05 527.356875 
L 17847.821429 527.356875 
L 17847.821429 527.356875 
L 17784.05 527.356875 
z
" clip-path="url(#pde3763b7eb)" style="fill: #0000ff"/>
   </g>
   <g id="patch_235">
    <path d="M 17863.764286 527.356875 
L 17927.535714 527.356875 
L 17927.535714 527.356875 
L 17863.764286 527.356875 
z
" clip-path="url(#pde3763b7eb)" style="fill: #0000ff"/>
   </g>
   <g id="patch_236">
    <path d="M 17943.478571 527.356875 
L 18007.25 527.356875 
L 18007.25 527.356875 
L 17943.478571 527.356875 
z
" clip-path="url(#pde3763b7eb)" style="fill: #0000ff"/>
   </g>
   <g id="patch_237">
    <path d="M 18023.192857 527.356875 
L 18086.964286 527.356875 
L 18086.964286 527.356875 
L 18023.192857 527.356875 
z
" clip-path="url(#pde3763b7eb)" style="fill: #0000ff"/>
   </g>
   <g id="patch_238">
    <path d="M 18102.907143 527.356875 
L 18166.678571 527.356875 
L 18166.678571 527.356875 
L 18102.907143 527.356875 
z
" clip-path="url(#pde3763b7eb)" style="fill: #0000ff"/>
   </g>
   <g id="patch_239">
    <path d="M 18182.621429 527.356875 
L 18246.392857 527.356875 
L 18246.392857 527.356875 
L 18182.621429 527.356875 
z
" clip-path="url(#pde3763b7eb)" style="fill: #0000ff"/>
   </g>
   <g id="patch_240">
    <path d="M 18262.335714 527.356875 
L 18326.107143 527.356875 
L 18326.107143 527.356875 
L 18262.335714 527.356875 
z
" clip-path="url(#pde3763b7eb)" style="fill: #0000ff"/>
   </g>
   <g id="patch_241">
    <path d="M 18342.05 527.356875 
L 18405.821429 527.356875 
L 18405.821429 527.107395 
L 18342.05 527.107395 
z
" clip-path="url(#pde3763b7eb)" style="fill: #0000ff"/>
   </g>
   <g id="patch_242">
    <path d="M 18421.764286 527.356875 
L 18485.535714 527.356875 
L 18485.535714 527.356875 
L 18421.764286 527.356875 
z
" clip-path="url(#pde3763b7eb)" style="fill: #0000ff"/>
   </g>
   <g id="patch_243">
    <path d="M 18501.478571 527.356875 
L 18565.25 527.356875 
L 18565.25 527.356875 
L 18501.478571 527.356875 
z
" clip-path="url(#pde3763b7eb)" style="fill: #0000ff"/>
   </g>
   <g id="patch_244">
    <path d="M 18581.192857 527.356875 
L 18644.964286 527.356875 
L 18644.964286 527.356875 
L 18581.192857 527.356875 
z
" clip-path="url(#pde3763b7eb)" style="fill: #0000ff"/>
   </g>
   <g id="patch_245">
    <path d="M 18660.907143 527.356875 
L 18724.678571 527.356875 
L 18724.678571 527.356875 
L 18660.907143 527.356875 
z
" clip-path="url(#pde3763b7eb)" style="fill: #0000ff"/>
   </g>
   <g id="patch_246">
    <path d="M 18740.621429 527.356875 
L 18804.392857 527.356875 
L 18804.392857 527.356875 
L 18740.621429 527.356875 
z
" clip-path="url(#pde3763b7eb)" style="fill: #0000ff"/>
   </g>
   <g id="patch_247">
    <path d="M 18820.335714 527.356875 
L 18884.107143 527.356875 
L 18884.107143 527.356875 
L 18820.335714 527.356875 
z
" clip-path="url(#pde3763b7eb)" style="fill: #0000ff"/>
   </g>
   <g id="patch_248">
    <path d="M 18900.05 527.356875 
L 18963.821429 527.356875 
L 18963.821429 527.356875 
L 18900.05 527.356875 
z
" clip-path="url(#pde3763b7eb)" style="fill: #0000ff"/>
   </g>
   <g id="patch_249">
    <path d="M 18979.764286 527.356875 
L 19043.535714 527.356875 
L 19043.535714 527.356875 
L 18979.764286 527.356875 
z
" clip-path="url(#pde3763b7eb)" style="fill: #0000ff"/>
   </g>
   <g id="patch_250">
    <path d="M 19059.478571 527.356875 
L 19123.25 527.356875 
L 19123.25 527.356875 
L 19059.478571 527.356875 
z
" clip-path="url(#pde3763b7eb)" style="fill: #0000ff"/>
   </g>
   <g id="patch_251">
    <path d="M 19139.192857 527.356875 
L 19202.964286 527.356875 
L 19202.964286 527.356875 
L 19139.192857 527.356875 
z
" clip-path="url(#pde3763b7eb)" style="fill: #0000ff"/>
   </g>
   <g id="patch_252">
    <path d="M 19218.907143 527.356875 
L 19282.678571 527.356875 
L 19282.678571 527.107395 
L 19218.907143 527.107395 
z
" clip-path="url(#pde3763b7eb)" style="fill: #0000ff"/>
   </g>
   <g id="patch_253">
    <path d="M 19298.621429 527.356875 
L 19362.392857 527.356875 
L 19362.392857 527.356875 
L 19298.621429 527.356875 
z
" clip-path="url(#pde3763b7eb)" style="fill: #0000ff"/>
   </g>
   <g id="patch_254">
    <path d="M 19378.335714 527.356875 
L 19442.107143 527.356875 
L 19442.107143 527.356875 
L 19378.335714 527.356875 
z
" clip-path="url(#pde3763b7eb)" style="fill: #0000ff"/>
   </g>
   <g id="patch_255">
    <path d="M 19458.05 527.356875 
L 19521.821429 527.356875 
L 19521.821429 527.356875 
L 19458.05 527.356875 
z
" clip-path="url(#pde3763b7eb)" style="fill: #0000ff"/>
   </g>
   <g id="patch_256">
    <path d="M 19537.764286 527.356875 
L 19601.535714 527.356875 
L 19601.535714 527.356875 
L 19537.764286 527.356875 
z
" clip-path="url(#pde3763b7eb)" style="fill: #0000ff"/>
   </g>
   <g id="patch_257">
    <path d="M 19617.478571 527.356875 
L 19681.25 527.356875 
L 19681.25 527.356875 
L 19617.478571 527.356875 
z
" clip-path="url(#pde3763b7eb)" style="fill: #0000ff"/>
   </g>
   <g id="patch_258">
    <path d="M 19697.192857 527.356875 
L 19760.964286 527.356875 
L 19760.964286 527.356875 
L 19697.192857 527.356875 
z
" clip-path="url(#pde3763b7eb)" style="fill: #0000ff"/>
   </g>
   <g id="patch_259">
    <path d="M 19776.907143 527.356875 
L 19840.678571 527.356875 
L 19840.678571 527.356875 
L 19776.907143 527.356875 
z
" clip-path="url(#pde3763b7eb)" style="fill: #0000ff"/>
   </g>
   <g id="patch_260">
    <path d="M 19856.621429 527.356875 
L 19920.392857 527.356875 
L 19920.392857 527.356875 
L 19856.621429 527.356875 
z
" clip-path="url(#pde3763b7eb)" style="fill: #0000ff"/>
   </g>
   <g id="patch_261">
    <path d="M 19936.335714 527.356875 
L 20000.107143 527.356875 
L 20000.107143 527.356875 
L 19936.335714 527.356875 
z
" clip-path="url(#pde3763b7eb)" style="fill: #0000ff"/>
   </g>
   <g id="patch_262">
    <path d="M 20016.05 527.356875 
L 20079.821429 527.356875 
L 20079.821429 526.857915 
L 20016.05 526.857915 
z
" clip-path="url(#pde3763b7eb)" style="fill: #0000ff"/>
   </g>
   <g id="patch_263">
    <path d="M 20095.764286 527.356875 
L 20159.535714 527.356875 
L 20159.535714 527.356875 
L 20095.764286 527.356875 
z
" clip-path="url(#pde3763b7eb)" style="fill: #0000ff"/>
   </g>
   <g id="patch_264">
    <path d="M 20175.478571 527.356875 
L 20239.25 527.356875 
L 20239.25 527.356875 
L 20175.478571 527.356875 
z
" clip-path="url(#pde3763b7eb)" style="fill: #0000ff"/>
   </g>
   <g id="patch_265">
    <path d="M 20255.192857 527.356875 
L 20318.964286 527.356875 
L 20318.964286 527.356875 
L 20255.192857 527.356875 
z
" clip-path="url(#pde3763b7eb)" style="fill: #0000ff"/>
   </g>
   <g id="patch_266">
    <path d="M 20334.907143 527.356875 
L 20398.678571 527.356875 
L 20398.678571 527.356875 
L 20334.907143 527.356875 
z
" clip-path="url(#pde3763b7eb)" style="fill: #0000ff"/>
   </g>
   <g id="patch_267">
    <path d="M 20414.621429 527.356875 
L 20478.392857 527.356875 
L 20478.392857 527.356875 
L 20414.621429 527.356875 
z
" clip-path="url(#pde3763b7eb)" style="fill: #0000ff"/>
   </g>
   <g id="patch_268">
    <path d="M 20494.335714 527.356875 
L 20558.107143 527.356875 
L 20558.107143 527.356875 
L 20494.335714 527.356875 
z
" clip-path="url(#pde3763b7eb)" style="fill: #0000ff"/>
   </g>
   <g id="patch_269">
    <path d="M 20574.05 527.356875 
L 20637.821429 527.356875 
L 20637.821429 527.356875 
L 20574.05 527.356875 
z
" clip-path="url(#pde3763b7eb)" style="fill: #0000ff"/>
   </g>
   <g id="patch_270">
    <path d="M 20653.764286 527.356875 
L 20717.535714 527.356875 
L 20717.535714 527.356875 
L 20653.764286 527.356875 
z
" clip-path="url(#pde3763b7eb)" style="fill: #0000ff"/>
   </g>
   <g id="patch_271">
    <path d="M 20733.478571 527.356875 
L 20797.25 527.356875 
L 20797.25 527.356875 
L 20733.478571 527.356875 
z
" clip-path="url(#pde3763b7eb)" style="fill: #0000ff"/>
   </g>
   <g id="patch_272">
    <path d="M 20813.192857 527.356875 
L 20876.964286 527.356875 
L 20876.964286 527.356875 
L 20813.192857 527.356875 
z
" clip-path="url(#pde3763b7eb)" style="fill: #0000ff"/>
   </g>
   <g id="patch_273">
    <path d="M 20892.907143 527.356875 
L 20956.678571 527.356875 
L 20956.678571 527.356875 
L 20892.907143 527.356875 
z
" clip-path="url(#pde3763b7eb)" style="fill: #0000ff"/>
   </g>
   <g id="patch_274">
    <path d="M 20972.621429 527.356875 
L 21036.392857 527.356875 
L 21036.392857 527.356875 
L 20972.621429 527.356875 
z
" clip-path="url(#pde3763b7eb)" style="fill: #0000ff"/>
   </g>
   <g id="patch_275">
    <path d="M 21052.335714 527.356875 
L 21116.107143 527.356875 
L 21116.107143 527.356875 
L 21052.335714 527.356875 
z
" clip-path="url(#pde3763b7eb)" style="fill: #0000ff"/>
   </g>
   <g id="patch_276">
    <path d="M 21132.05 527.356875 
L 21195.821429 527.356875 
L 21195.821429 527.356875 
L 21132.05 527.356875 
z
" clip-path="url(#pde3763b7eb)" style="fill: #0000ff"/>
   </g>
   <g id="patch_277">
    <path d="M 21211.764286 527.356875 
L 21275.535714 527.356875 
L 21275.535714 527.356875 
L 21211.764286 527.356875 
z
" clip-path="url(#pde3763b7eb)" style="fill: #0000ff"/>
   </g>
   <g id="patch_278">
    <path d="M 21291.478571 527.356875 
L 21355.25 527.356875 
L 21355.25 527.356875 
L 21291.478571 527.356875 
z
" clip-path="url(#pde3763b7eb)" style="fill: #0000ff"/>
   </g>
   <g id="patch_279">
    <path d="M 21371.192857 527.356875 
L 21434.964286 527.356875 
L 21434.964286 527.356875 
L 21371.192857 527.356875 
z
" clip-path="url(#pde3763b7eb)" style="fill: #0000ff"/>
   </g>
   <g id="patch_280">
    <path d="M 21450.907143 527.356875 
L 21514.678571 527.356875 
L 21514.678571 527.356875 
L 21450.907143 527.356875 
z
" clip-path="url(#pde3763b7eb)" style="fill: #0000ff"/>
   </g>
   <g id="patch_281">
    <path d="M 21530.621429 527.356875 
L 21594.392857 527.356875 
L 21594.392857 527.356875 
L 21530.621429 527.356875 
z
" clip-path="url(#pde3763b7eb)" style="fill: #0000ff"/>
   </g>
   <g id="patch_282">
    <path d="M 21610.335714 527.356875 
L 21674.107143 527.356875 
L 21674.107143 527.356875 
L 21610.335714 527.356875 
z
" clip-path="url(#pde3763b7eb)" style="fill: #0000ff"/>
   </g>
   <g id="patch_283">
    <path d="M 21690.05 527.356875 
L 21753.821429 527.356875 
L 21753.821429 527.356875 
L 21690.05 527.356875 
z
" clip-path="url(#pde3763b7eb)" style="fill: #0000ff"/>
   </g>
   <g id="patch_284">
    <path d="M 21769.764286 527.356875 
L 21833.535714 527.356875 
L 21833.535714 527.356875 
L 21769.764286 527.356875 
z
" clip-path="url(#pde3763b7eb)" style="fill: #0000ff"/>
   </g>
   <g id="patch_285">
    <path d="M 21849.478571 527.356875 
L 21913.25 527.356875 
L 21913.25 527.107395 
L 21849.478571 527.107395 
z
" clip-path="url(#pde3763b7eb)" style="fill: #0000ff"/>
   </g>
   <g id="patch_286">
    <path d="M 21929.192857 527.356875 
L 21992.964286 527.356875 
L 21992.964286 527.356875 
L 21929.192857 527.356875 
z
" clip-path="url(#pde3763b7eb)" style="fill: #0000ff"/>
   </g>
   <g id="patch_287">
    <path d="M 22008.907143 527.356875 
L 22072.678571 527.356875 
L 22072.678571 527.356875 
L 22008.907143 527.356875 
z
" clip-path="url(#pde3763b7eb)" style="fill: #0000ff"/>
   </g>
   <g id="patch_288">
    <path d="M 22088.621429 527.356875 
L 22152.392857 527.356875 
L 22152.392857 527.356875 
L 22088.621429 527.356875 
z
" clip-path="url(#pde3763b7eb)" style="fill: #0000ff"/>
   </g>
   <g id="patch_289">
    <path d="M 22168.335714 527.356875 
L 22232.107143 527.356875 
L 22232.107143 527.356875 
L 22168.335714 527.356875 
z
" clip-path="url(#pde3763b7eb)" style="fill: #0000ff"/>
   </g>
   <g id="patch_290">
    <path d="M 22248.05 527.356875 
L 22311.821429 527.356875 
L 22311.821429 527.356875 
L 22248.05 527.356875 
z
" clip-path="url(#pde3763b7eb)" style="fill: #0000ff"/>
   </g>
   <g id="patch_291">
    <path d="M 22327.764286 527.356875 
L 22391.535714 527.356875 
L 22391.535714 527.356875 
L 22327.764286 527.356875 
z
" clip-path="url(#pde3763b7eb)" style="fill: #0000ff"/>
   </g>
   <g id="patch_292">
    <path d="M 22407.478571 527.356875 
L 22471.25 527.356875 
L 22471.25 527.356875 
L 22407.478571 527.356875 
z
" clip-path="url(#pde3763b7eb)" style="fill: #0000ff"/>
   </g>
   <g id="patch_293">
    <path d="M 22487.192857 527.356875 
L 22550.964286 527.356875 
L 22550.964286 527.356875 
L 22487.192857 527.356875 
z
" clip-path="url(#pde3763b7eb)" style="fill: #0000ff"/>
   </g>
   <g id="patch_294">
    <path d="M 22566.907143 527.356875 
L 22630.678571 527.356875 
L 22630.678571 527.356875 
L 22566.907143 527.356875 
z
" clip-path="url(#pde3763b7eb)" style="fill: #0000ff"/>
   </g>
   <g id="patch_295">
    <path d="M 22646.621429 527.356875 
L 22710.392857 527.356875 
L 22710.392857 527.356875 
L 22646.621429 527.356875 
z
" clip-path="url(#pde3763b7eb)" style="fill: #0000ff"/>
   </g>
   <g id="patch_296">
    <path d="M 22726.335714 527.356875 
L 22790.107143 527.356875 
L 22790.107143 527.356875 
L 22726.335714 527.356875 
z
" clip-path="url(#pde3763b7eb)" style="fill: #0000ff"/>
   </g>
   <g id="patch_297">
    <path d="M 22806.05 527.356875 
L 22869.821429 527.356875 
L 22869.821429 527.356875 
L 22806.05 527.356875 
z
" clip-path="url(#pde3763b7eb)" style="fill: #0000ff"/>
   </g>
   <g id="patch_298">
    <path d="M 22885.764286 527.356875 
L 22949.535714 527.356875 
L 22949.535714 527.356875 
L 22885.764286 527.356875 
z
" clip-path="url(#pde3763b7eb)" style="fill: #0000ff"/>
   </g>
   <g id="patch_299">
    <path d="M 22965.478571 527.356875 
L 23029.25 527.356875 
L 23029.25 527.356875 
L 22965.478571 527.356875 
z
" clip-path="url(#pde3763b7eb)" style="fill: #0000ff"/>
   </g>
   <g id="patch_300">
    <path d="M 23045.192857 527.356875 
L 23108.964286 527.356875 
L 23108.964286 527.356875 
L 23045.192857 527.356875 
z
" clip-path="url(#pde3763b7eb)" style="fill: #0000ff"/>
   </g>
   <g id="patch_301">
    <path d="M 23124.907143 527.356875 
L 23188.678571 527.356875 
L 23188.678571 527.356875 
L 23124.907143 527.356875 
z
" clip-path="url(#pde3763b7eb)" style="fill: #0000ff"/>
   </g>
   <g id="patch_302">
    <path d="M 23204.621429 527.356875 
L 23268.392857 527.356875 
L 23268.392857 527.356875 
L 23204.621429 527.356875 
z
" clip-path="url(#pde3763b7eb)" style="fill: #0000ff"/>
   </g>
   <g id="patch_303">
    <path d="M 23284.335714 527.356875 
L 23348.107143 527.356875 
L 23348.107143 500.662515 
L 23284.335714 500.662515 
z
" clip-path="url(#pde3763b7eb)" style="fill: #0000ff"/>
   </g>
   <g id="matplotlib.axis_1">
    <g id="xtick_1">
     <g id="line2d_1">
      <defs>
       <path id="m90c5d615aa" d="M 0 0 
L 0 3.5 
" style="stroke: #000000; stroke-width: 0.8"/>
      </defs>
      <g>
       <use xlink:href="#m90c5d615aa" x="199.078571" y="527.356875" style="stroke: #000000; stroke-width: 0.8"/>
      </g>
     </g>
     <g id="text_1">
      <!-- 10 -->
      <g transform="translate(194.948172 547.299815)rotate(-30)scale(0.1 -0.1)">
       <defs>
        <path id="DejaVuSans-31" d="M 794 531 
L 1825 531 
L 1825 4091 
L 703 3866 
L 703 4441 
L 1819 4666 
L 2450 4666 
L 2450 531 
L 3481 531 
L 3481 0 
L 794 0 
L 794 531 
z
" transform="scale(0.015625)"/>
        <path id="DejaVuSans-30" d="M 2034 4250 
Q 1547 4250 1301 3770 
Q 1056 3291 1056 2328 
Q 1056 1369 1301 889 
Q 1547 409 2034 409 
Q 2525 409 2770 889 
Q 3016 1369 3016 2328 
Q 3016 3291 2770 3770 
Q 2525 4250 2034 4250 
z
M 2034 4750 
Q 2819 4750 3233 4129 
Q 3647 3509 3647 2328 
Q 3647 1150 3233 529 
Q 2819 -91 2034 -91 
Q 1250 -91 836 529 
Q 422 1150 422 2328 
Q 422 3509 836 4129 
Q 1250 4750 2034 4750 
z
" transform="scale(0.015625)"/>
       </defs>
       <use xlink:href="#DejaVuSans-31"/>
       <use xlink:href="#DejaVuSans-30" x="63.623047"/>
      </g>
     </g>
    </g>
    <g id="xtick_2">
     <g id="line2d_2">
      <g>
       <use xlink:href="#m90c5d615aa" x="597.65" y="527.356875" style="stroke: #000000; stroke-width: 0.8"/>
      </g>
     </g>
     <g id="text_2">
      <!-- 15 -->
      <g transform="translate(593.519601 547.299815)rotate(-30)scale(0.1 -0.1)">
       <defs>
        <path id="DejaVuSans-35" d="M 691 4666 
L 3169 4666 
L 3169 4134 
L 1269 4134 
L 1269 2991 
Q 1406 3038 1543 3061 
Q 1681 3084 1819 3084 
Q 2600 3084 3056 2656 
Q 3513 2228 3513 1497 
Q 3513 744 3044 326 
Q 2575 -91 1722 -91 
Q 1428 -91 1123 -41 
Q 819 9 494 109 
L 494 744 
Q 775 591 1075 516 
Q 1375 441 1709 441 
Q 2250 441 2565 725 
Q 2881 1009 2881 1497 
Q 2881 1984 2565 2268 
Q 2250 2553 1709 2553 
Q 1456 2553 1204 2497 
Q 953 2441 691 2322 
L 691 4666 
z
" transform="scale(0.015625)"/>
       </defs>
       <use xlink:href="#DejaVuSans-31"/>
       <use xlink:href="#DejaVuSans-35" x="63.623047"/>
      </g>
     </g>
    </g>
    <g id="xtick_3">
     <g id="line2d_3">
      <g>
       <use xlink:href="#m90c5d615aa" x="996.221429" y="527.356875" style="stroke: #000000; stroke-width: 0.8"/>
      </g>
     </g>
     <g id="text_3">
      <!-- 20 -->
      <g transform="translate(992.091029 547.299815)rotate(-30)scale(0.1 -0.1)">
       <defs>
        <path id="DejaVuSans-32" d="M 1228 531 
L 3431 531 
L 3431 0 
L 469 0 
L 469 531 
Q 828 903 1448 1529 
Q 2069 2156 2228 2338 
Q 2531 2678 2651 2914 
Q 2772 3150 2772 3378 
Q 2772 3750 2511 3984 
Q 2250 4219 1831 4219 
Q 1534 4219 1204 4116 
Q 875 4013 500 3803 
L 500 4441 
Q 881 4594 1212 4672 
Q 1544 4750 1819 4750 
Q 2544 4750 2975 4387 
Q 3406 4025 3406 3419 
Q 3406 3131 3298 2873 
Q 3191 2616 2906 2266 
Q 2828 2175 2409 1742 
Q 1991 1309 1228 531 
z
" transform="scale(0.015625)"/>
       </defs>
       <use xlink:href="#DejaVuSans-32"/>
       <use xlink:href="#DejaVuSans-30" x="63.623047"/>
      </g>
     </g>
    </g>
   </g>
   <g id="matplotlib.axis_2">
    <g id="ytick_1">
     <g id="line2d_4">
      <defs>
       <path id="m2c01a2fbe1" d="M 0 0 
L -3.5 0 
" style="stroke: #000000; stroke-width: 0.8"/>
      </defs>
      <g>
       <use xlink:href="#m2c01a2fbe1" x="39.65" y="527.356875" style="stroke: #000000; stroke-width: 0.8"/>
      </g>
     </g>
     <g id="text_4">
      <!-- 0 -->
      <g transform="translate(26.2875 531.156094)scale(0.1 -0.1)">
       <use xlink:href="#DejaVuSans-30"/>
      </g>
     </g>
    </g>
    <g id="ytick_2">
     <g id="line2d_5">
      <g>
       <use xlink:href="#m2c01a2fbe1" x="39.65" y="464.986875" style="stroke: #000000; stroke-width: 0.8"/>
      </g>
     </g>
     <g id="text_5">
      <!-- 250 -->
      <g transform="translate(13.5625 468.786094)scale(0.1 -0.1)">
       <use xlink:href="#DejaVuSans-32"/>
       <use xlink:href="#DejaVuSans-35" x="63.623047"/>
       <use xlink:href="#DejaVuSans-30" x="127.246094"/>
      </g>
     </g>
    </g>
    <g id="ytick_3">
     <g id="line2d_6">
      <g>
       <use xlink:href="#m2c01a2fbe1" x="39.65" y="402.616875" style="stroke: #000000; stroke-width: 0.8"/>
      </g>
     </g>
     <g id="text_6">
      <!-- 500 -->
      <g transform="translate(13.5625 406.416094)scale(0.1 -0.1)">
       <use xlink:href="#DejaVuSans-35"/>
       <use xlink:href="#DejaVuSans-30" x="63.623047"/>
       <use xlink:href="#DejaVuSans-30" x="127.246094"/>
      </g>
     </g>
    </g>
    <g id="ytick_4">
     <g id="line2d_7">
      <g>
       <use xlink:href="#m2c01a2fbe1" x="39.65" y="340.246875" style="stroke: #000000; stroke-width: 0.8"/>
      </g>
     </g>
     <g id="text_7">
      <!-- 750 -->
      <g transform="translate(13.5625 344.046094)scale(0.1 -0.1)">
       <defs>
        <path id="DejaVuSans-37" d="M 525 4666 
L 3525 4666 
L 3525 4397 
L 1831 0 
L 1172 0 
L 2766 4134 
L 525 4134 
L 525 4666 
z
" transform="scale(0.015625)"/>
       </defs>
       <use xlink:href="#DejaVuSans-37"/>
       <use xlink:href="#DejaVuSans-35" x="63.623047"/>
       <use xlink:href="#DejaVuSans-30" x="127.246094"/>
      </g>
     </g>
    </g>
    <g id="ytick_5">
     <g id="line2d_8">
      <g>
       <use xlink:href="#m2c01a2fbe1" x="39.65" y="277.876875" style="stroke: #000000; stroke-width: 0.8"/>
      </g>
     </g>
     <g id="text_8">
      <!-- 1000 -->
      <g transform="translate(7.2 281.676094)scale(0.1 -0.1)">
       <use xlink:href="#DejaVuSans-31"/>
       <use xlink:href="#DejaVuSans-30" x="63.623047"/>
       <use xlink:href="#DejaVuSans-30" x="127.246094"/>
       <use xlink:href="#DejaVuSans-30" x="190.869141"/>
      </g>
     </g>
    </g>
    <g id="ytick_6">
     <g id="line2d_9">
      <g>
       <use xlink:href="#m2c01a2fbe1" x="39.65" y="215.506875" style="stroke: #000000; stroke-width: 0.8"/>
      </g>
     </g>
     <g id="text_9">
      <!-- 1250 -->
      <g transform="translate(7.2 219.306094)scale(0.1 -0.1)">
       <use xlink:href="#DejaVuSans-31"/>
       <use xlink:href="#DejaVuSans-32" x="63.623047"/>
       <use xlink:href="#DejaVuSans-35" x="127.246094"/>
       <use xlink:href="#DejaVuSans-30" x="190.869141"/>
      </g>
     </g>
    </g>
    <g id="ytick_7">
     <g id="line2d_10">
      <g>
       <use xlink:href="#m2c01a2fbe1" x="39.65" y="153.136875" style="stroke: #000000; stroke-width: 0.8"/>
      </g>
     </g>
     <g id="text_10">
      <!-- 1500 -->
      <g transform="translate(7.2 156.936094)scale(0.1 -0.1)">
       <use xlink:href="#DejaVuSans-31"/>
       <use xlink:href="#DejaVuSans-35" x="63.623047"/>
       <use xlink:href="#DejaVuSans-30" x="127.246094"/>
       <use xlink:href="#DejaVuSans-30" x="190.869141"/>
      </g>
     </g>
    </g>
    <g id="ytick_8">
     <g id="line2d_11">
      <g>
       <use xlink:href="#m2c01a2fbe1" x="39.65" y="90.766875" style="stroke: #000000; stroke-width: 0.8"/>
      </g>
     </g>
     <g id="text_11">
      <!-- 1750 -->
      <g transform="translate(7.2 94.566094)scale(0.1 -0.1)">
       <use xlink:href="#DejaVuSans-31"/>
       <use xlink:href="#DejaVuSans-37" x="63.623047"/>
       <use xlink:href="#DejaVuSans-35" x="127.246094"/>
       <use xlink:href="#DejaVuSans-30" x="190.869141"/>
      </g>
     </g>
    </g>
    <g id="ytick_9">
     <g id="line2d_12">
      <g>
       <use xlink:href="#m2c01a2fbe1" x="39.65" y="28.396875" style="stroke: #000000; stroke-width: 0.8"/>
      </g>
     </g>
     <g id="text_12">
      <!-- 2000 -->
      <g transform="translate(7.2 32.196094)scale(0.1 -0.1)">
       <use xlink:href="#DejaVuSans-32"/>
       <use xlink:href="#DejaVuSans-30" x="63.623047"/>
       <use xlink:href="#DejaVuSans-30" x="127.246094"/>
       <use xlink:href="#DejaVuSans-30" x="190.869141"/>
      </g>
     </g>
    </g>
   </g>
   <g id="patch_304">
    <path d="M 39.65 527.356875 
L 39.65 28.396875 
" style="fill: none; stroke: #000000; stroke-width: 0.8; stroke-linejoin: miter; stroke-linecap: square"/>
   </g>
   <g id="patch_305">
    <path d="M 1155.65 527.356875 
L 1155.65 28.396875 
" style="fill: none; stroke: #000000; stroke-width: 0.8; stroke-linejoin: miter; stroke-linecap: square"/>
   </g>
   <g id="patch_306">
    <path d="M 39.65 527.356875 
L 1155.65 527.356875 
" style="fill: none; stroke: #000000; stroke-width: 0.8; stroke-linejoin: miter; stroke-linecap: square"/>
   </g>
   <g id="patch_307">
    <path d="M 39.65 28.396875 
L 1155.65 28.396875 
" style="fill: none; stroke: #000000; stroke-width: 0.8; stroke-linejoin: miter; stroke-linecap: square"/>
   </g>
   <g id="text_13">
    <!-- My Photo Statistics SIGMA 10 - 20 EX HSM APS-C lens -->
    <g transform="translate(329.559375 22.396875)scale(0.2 -0.2)">
     <defs>
      <path id="DejaVuSans-4d" d="M 628 4666 
L 1569 4666 
L 2759 1491 
L 3956 4666 
L 4897 4666 
L 4897 0 
L 4281 0 
L 4281 4097 
L 3078 897 
L 2444 897 
L 1241 4097 
L 1241 0 
L 628 0 
L 628 4666 
z
" transform="scale(0.015625)"/>
      <path id="DejaVuSans-79" d="M 2059 -325 
Q 1816 -950 1584 -1140 
Q 1353 -1331 966 -1331 
L 506 -1331 
L 506 -850 
L 844 -850 
Q 1081 -850 1212 -737 
Q 1344 -625 1503 -206 
L 1606 56 
L 191 3500 
L 800 3500 
L 1894 763 
L 2988 3500 
L 3597 3500 
L 2059 -325 
z
" transform="scale(0.015625)"/>
      <path id="DejaVuSans-20" transform="scale(0.015625)"/>
      <path id="DejaVuSans-50" d="M 1259 4147 
L 1259 2394 
L 2053 2394 
Q 2494 2394 2734 2622 
Q 2975 2850 2975 3272 
Q 2975 3691 2734 3919 
Q 2494 4147 2053 4147 
L 1259 4147 
z
M 628 4666 
L 2053 4666 
Q 2838 4666 3239 4311 
Q 3641 3956 3641 3272 
Q 3641 2581 3239 2228 
Q 2838 1875 2053 1875 
L 1259 1875 
L 1259 0 
L 628 0 
L 628 4666 
z
" transform="scale(0.015625)"/>
      <path id="DejaVuSans-68" d="M 3513 2113 
L 3513 0 
L 2938 0 
L 2938 2094 
Q 2938 2591 2744 2837 
Q 2550 3084 2163 3084 
Q 1697 3084 1428 2787 
Q 1159 2491 1159 1978 
L 1159 0 
L 581 0 
L 581 4863 
L 1159 4863 
L 1159 2956 
Q 1366 3272 1645 3428 
Q 1925 3584 2291 3584 
Q 2894 3584 3203 3211 
Q 3513 2838 3513 2113 
z
" transform="scale(0.015625)"/>
      <path id="DejaVuSans-6f" d="M 1959 3097 
Q 1497 3097 1228 2736 
Q 959 2375 959 1747 
Q 959 1119 1226 758 
Q 1494 397 1959 397 
Q 2419 397 2687 759 
Q 2956 1122 2956 1747 
Q 2956 2369 2687 2733 
Q 2419 3097 1959 3097 
z
M 1959 3584 
Q 2709 3584 3137 3096 
Q 3566 2609 3566 1747 
Q 3566 888 3137 398 
Q 2709 -91 1959 -91 
Q 1206 -91 779 398 
Q 353 888 353 1747 
Q 353 2609 779 3096 
Q 1206 3584 1959 3584 
z
" transform="scale(0.015625)"/>
      <path id="DejaVuSans-74" d="M 1172 4494 
L 1172 3500 
L 2356 3500 
L 2356 3053 
L 1172 3053 
L 1172 1153 
Q 1172 725 1289 603 
Q 1406 481 1766 481 
L 2356 481 
L 2356 0 
L 1766 0 
Q 1100 0 847 248 
Q 594 497 594 1153 
L 594 3053 
L 172 3053 
L 172 3500 
L 594 3500 
L 594 4494 
L 1172 4494 
z
" transform="scale(0.015625)"/>
      <path id="DejaVuSans-53" d="M 3425 4513 
L 3425 3897 
Q 3066 4069 2747 4153 
Q 2428 4238 2131 4238 
Q 1616 4238 1336 4038 
Q 1056 3838 1056 3469 
Q 1056 3159 1242 3001 
Q 1428 2844 1947 2747 
L 2328 2669 
Q 3034 2534 3370 2195 
Q 3706 1856 3706 1288 
Q 3706 609 3251 259 
Q 2797 -91 1919 -91 
Q 1588 -91 1214 -16 
Q 841 59 441 206 
L 441 856 
Q 825 641 1194 531 
Q 1563 422 1919 422 
Q 2459 422 2753 634 
Q 3047 847 3047 1241 
Q 3047 1584 2836 1778 
Q 2625 1972 2144 2069 
L 1759 2144 
Q 1053 2284 737 2584 
Q 422 2884 422 3419 
Q 422 4038 858 4394 
Q 1294 4750 2059 4750 
Q 2388 4750 2728 4690 
Q 3069 4631 3425 4513 
z
" transform="scale(0.015625)"/>
      <path id="DejaVuSans-61" d="M 2194 1759 
Q 1497 1759 1228 1600 
Q 959 1441 959 1056 
Q 959 750 1161 570 
Q 1363 391 1709 391 
Q 2188 391 2477 730 
Q 2766 1069 2766 1631 
L 2766 1759 
L 2194 1759 
z
M 3341 1997 
L 3341 0 
L 2766 0 
L 2766 531 
Q 2569 213 2275 61 
Q 1981 -91 1556 -91 
Q 1019 -91 701 211 
Q 384 513 384 1019 
Q 384 1609 779 1909 
Q 1175 2209 1959 2209 
L 2766 2209 
L 2766 2266 
Q 2766 2663 2505 2880 
Q 2244 3097 1772 3097 
Q 1472 3097 1187 3025 
Q 903 2953 641 2809 
L 641 3341 
Q 956 3463 1253 3523 
Q 1550 3584 1831 3584 
Q 2591 3584 2966 3190 
Q 3341 2797 3341 1997 
z
" transform="scale(0.015625)"/>
      <path id="DejaVuSans-69" d="M 603 3500 
L 1178 3500 
L 1178 0 
L 603 0 
L 603 3500 
z
M 603 4863 
L 1178 4863 
L 1178 4134 
L 603 4134 
L 603 4863 
z
" transform="scale(0.015625)"/>
      <path id="DejaVuSans-73" d="M 2834 3397 
L 2834 2853 
Q 2591 2978 2328 3040 
Q 2066 3103 1784 3103 
Q 1356 3103 1142 2972 
Q 928 2841 928 2578 
Q 928 2378 1081 2264 
Q 1234 2150 1697 2047 
L 1894 2003 
Q 2506 1872 2764 1633 
Q 3022 1394 3022 966 
Q 3022 478 2636 193 
Q 2250 -91 1575 -91 
Q 1294 -91 989 -36 
Q 684 19 347 128 
L 347 722 
Q 666 556 975 473 
Q 1284 391 1588 391 
Q 1994 391 2212 530 
Q 2431 669 2431 922 
Q 2431 1156 2273 1281 
Q 2116 1406 1581 1522 
L 1381 1569 
Q 847 1681 609 1914 
Q 372 2147 372 2553 
Q 372 3047 722 3315 
Q 1072 3584 1716 3584 
Q 2034 3584 2315 3537 
Q 2597 3491 2834 3397 
z
" transform="scale(0.015625)"/>
      <path id="DejaVuSans-63" d="M 3122 3366 
L 3122 2828 
Q 2878 2963 2633 3030 
Q 2388 3097 2138 3097 
Q 1578 3097 1268 2742 
Q 959 2388 959 1747 
Q 959 1106 1268 751 
Q 1578 397 2138 397 
Q 2388 397 2633 464 
Q 2878 531 3122 666 
L 3122 134 
Q 2881 22 2623 -34 
Q 2366 -91 2075 -91 
Q 1284 -91 818 406 
Q 353 903 353 1747 
Q 353 2603 823 3093 
Q 1294 3584 2113 3584 
Q 2378 3584 2631 3529 
Q 2884 3475 3122 3366 
z
" transform="scale(0.015625)"/>
      <path id="DejaVuSans-49" d="M 628 4666 
L 1259 4666 
L 1259 0 
L 628 0 
L 628 4666 
z
" transform="scale(0.015625)"/>
      <path id="DejaVuSans-47" d="M 3809 666 
L 3809 1919 
L 2778 1919 
L 2778 2438 
L 4434 2438 
L 4434 434 
Q 4069 175 3628 42 
Q 3188 -91 2688 -91 
Q 1594 -91 976 548 
Q 359 1188 359 2328 
Q 359 3472 976 4111 
Q 1594 4750 2688 4750 
Q 3144 4750 3555 4637 
Q 3966 4525 4313 4306 
L 4313 3634 
Q 3963 3931 3569 4081 
Q 3175 4231 2741 4231 
Q 1884 4231 1454 3753 
Q 1025 3275 1025 2328 
Q 1025 1384 1454 906 
Q 1884 428 2741 428 
Q 3075 428 3337 486 
Q 3600 544 3809 666 
z
" transform="scale(0.015625)"/>
      <path id="DejaVuSans-41" d="M 2188 4044 
L 1331 1722 
L 3047 1722 
L 2188 4044 
z
M 1831 4666 
L 2547 4666 
L 4325 0 
L 3669 0 
L 3244 1197 
L 1141 1197 
L 716 0 
L 50 0 
L 1831 4666 
z
" transform="scale(0.015625)"/>
      <path id="DejaVuSans-2d" d="M 313 2009 
L 1997 2009 
L 1997 1497 
L 313 1497 
L 313 2009 
z
" transform="scale(0.015625)"/>
      <path id="DejaVuSans-45" d="M 628 4666 
L 3578 4666 
L 3578 4134 
L 1259 4134 
L 1259 2753 
L 3481 2753 
L 3481 2222 
L 1259 2222 
L 1259 531 
L 3634 531 
L 3634 0 
L 628 0 
L 628 4666 
z
" transform="scale(0.015625)"/>
      <path id="DejaVuSans-58" d="M 403 4666 
L 1081 4666 
L 2241 2931 
L 3406 4666 
L 4084 4666 
L 2584 2425 
L 4184 0 
L 3506 0 
L 2194 1984 
L 872 0 
L 191 0 
L 1856 2491 
L 403 4666 
z
" transform="scale(0.015625)"/>
      <path id="DejaVuSans-48" d="M 628 4666 
L 1259 4666 
L 1259 2753 
L 3553 2753 
L 3553 4666 
L 4184 4666 
L 4184 0 
L 3553 0 
L 3553 2222 
L 1259 2222 
L 1259 0 
L 628 0 
L 628 4666 
z
" transform="scale(0.015625)"/>
      <path id="DejaVuSans-43" d="M 4122 4306 
L 4122 3641 
Q 3803 3938 3442 4084 
Q 3081 4231 2675 4231 
Q 1875 4231 1450 3742 
Q 1025 3253 1025 2328 
Q 1025 1406 1450 917 
Q 1875 428 2675 428 
Q 3081 428 3442 575 
Q 3803 722 4122 1019 
L 4122 359 
Q 3791 134 3420 21 
Q 3050 -91 2638 -91 
Q 1578 -91 968 557 
Q 359 1206 359 2328 
Q 359 3453 968 4101 
Q 1578 4750 2638 4750 
Q 3056 4750 3426 4639 
Q 3797 4528 4122 4306 
z
" transform="scale(0.015625)"/>
      <path id="DejaVuSans-6c" d="M 603 4863 
L 1178 4863 
L 1178 0 
L 603 0 
L 603 4863 
z
" transform="scale(0.015625)"/>
      <path id="DejaVuSans-65" d="M 3597 1894 
L 3597 1613 
L 953 1613 
Q 991 1019 1311 708 
Q 1631 397 2203 397 
Q 2534 397 2845 478 
Q 3156 559 3463 722 
L 3463 178 
Q 3153 47 2828 -22 
Q 2503 -91 2169 -91 
Q 1331 -91 842 396 
Q 353 884 353 1716 
Q 353 2575 817 3079 
Q 1281 3584 2069 3584 
Q 2775 3584 3186 3129 
Q 3597 2675 3597 1894 
z
M 3022 2063 
Q 3016 2534 2758 2815 
Q 2500 3097 2075 3097 
Q 1594 3097 1305 2825 
Q 1016 2553 972 2059 
L 3022 2063 
z
" transform="scale(0.015625)"/>
      <path id="DejaVuSans-6e" d="M 3513 2113 
L 3513 0 
L 2938 0 
L 2938 2094 
Q 2938 2591 2744 2837 
Q 2550 3084 2163 3084 
Q 1697 3084 1428 2787 
Q 1159 2491 1159 1978 
L 1159 0 
L 581 0 
L 581 3500 
L 1159 3500 
L 1159 2956 
Q 1366 3272 1645 3428 
Q 1925 3584 2291 3584 
Q 2894 3584 3203 3211 
Q 3513 2838 3513 2113 
z
" transform="scale(0.015625)"/>
     </defs>
     <use xlink:href="#DejaVuSans-4d"/>
     <use xlink:href="#DejaVuSans-79" x="86.279297"/>
     <use xlink:href="#DejaVuSans-20" x="145.458984"/>
     <use xlink:href="#DejaVuSans-50" x="177.246094"/>
     <use xlink:href="#DejaVuSans-68" x="237.548828"/>
     <use xlink:href="#DejaVuSans-6f" x="300.927734"/>
     <use xlink:href="#DejaVuSans-74" x="362.109375"/>
     <use xlink:href="#DejaVuSans-6f" x="401.318359"/>
     <use xlink:href="#DejaVuSans-20" x="462.5"/>
     <use xlink:href="#DejaVuSans-53" x="494.287109"/>
     <use xlink:href="#DejaVuSans-74" x="557.763672"/>
     <use xlink:href="#DejaVuSans-61" x="596.972656"/>
     <use xlink:href="#DejaVuSans-74" x="658.251953"/>
     <use xlink:href="#DejaVuSans-69" x="697.460938"/>
     <use xlink:href="#DejaVuSans-73" x="725.244141"/>
     <use xlink:href="#DejaVuSans-74" x="777.34375"/>
     <use xlink:href="#DejaVuSans-69" x="816.552734"/>
     <use xlink:href="#DejaVuSans-63" x="844.335938"/>
     <use xlink:href="#DejaVuSans-73" x="899.316406"/>
     <use xlink:href="#DejaVuSans-20" x="951.416016"/>
     <use xlink:href="#DejaVuSans-53" x="983.203125"/>
     <use xlink:href="#DejaVuSans-49" x="1046.679688"/>
     <use xlink:href="#DejaVuSans-47" x="1076.171875"/>
     <use xlink:href="#DejaVuSans-4d" x="1153.662109"/>
     <use xlink:href="#DejaVuSans-41" x="1239.941406"/>
     <use xlink:href="#DejaVuSans-20" x="1308.349609"/>
     <use xlink:href="#DejaVuSans-31" x="1340.136719"/>
     <use xlink:href="#DejaVuSans-30" x="1403.759766"/>
     <use xlink:href="#DejaVuSans-20" x="1467.382812"/>
     <use xlink:href="#DejaVuSans-2d" x="1499.169922"/>
     <use xlink:href="#DejaVuSans-20" x="1535.253906"/>
     <use xlink:href="#DejaVuSans-32" x="1567.041016"/>
     <use xlink:href="#DejaVuSans-30" x="1630.664062"/>
     <use xlink:href="#DejaVuSans-20" x="1694.287109"/>
     <use xlink:href="#DejaVuSans-45" x="1726.074219"/>
     <use xlink:href="#DejaVuSans-58" x="1789.257812"/>
     <use xlink:href="#DejaVuSans-20" x="1857.763672"/>
     <use xlink:href="#DejaVuSans-48" x="1889.550781"/>
     <use xlink:href="#DejaVuSans-53" x="1964.746094"/>
     <use xlink:href="#DejaVuSans-4d" x="2028.222656"/>
     <use xlink:href="#DejaVuSans-20" x="2114.501953"/>
     <use xlink:href="#DejaVuSans-41" x="2146.289062"/>
     <use xlink:href="#DejaVuSans-50" x="2214.697266"/>
     <use xlink:href="#DejaVuSans-53" x="2275"/>
     <use xlink:href="#DejaVuSans-2d" x="2338.476562"/>
     <use xlink:href="#DejaVuSans-43" x="2374.560547"/>
     <use xlink:href="#DejaVuSans-20" x="2444.384766"/>
     <use xlink:href="#DejaVuSans-6c" x="2476.171875"/>
     <use xlink:href="#DejaVuSans-65" x="2503.955078"/>
     <use xlink:href="#DejaVuSans-6e" x="2565.478516"/>
     <use xlink:href="#DejaVuSans-73" x="2628.857422"/>
    </g>
   </g>
  </g>
 </g>
 <defs>
  <clipPath id="pde3763b7eb">
   <rect x="39.65" y="28.396875" width="1116" height="498.96"/>
  </clipPath>
 </defs>
</svg>
